<svg width="43" height="51" viewBox="0 0 43 51" fill="none" xmlns="http://www.w3.org/2000/svg">
<path d="M40.9766 0.25C41.3747 0.25012 41.7447 0.440723 42.0098 0.758789C42.2737 1.07561 42.417 1.49682 42.417 1.92871V36.2139C42.417 36.6458 42.2738 37.0679 42.0098 37.3848C41.7447 37.7027 41.3746 37.8925 40.9766 37.8926H33.8037C33.7849 37.9233 33.7644 37.9534 33.7451 37.9844L42.0098 47.9014C42.2737 48.2182 42.416 48.6395 42.416 49.0713C42.416 49.5031 42.2737 49.9244 42.0098 50.2412C41.7336 50.5733 41.3606 50.7499 40.9766 50.75C40.5921 50.75 40.2183 50.5724 39.9424 50.2412L31.7305 40.3867C29.9988 41.9496 27.8449 42.8926 25.5 42.8926C22.087 42.8926 19.0804 40.9076 17.1973 37.8926H1.69043C1.29217 37.8926 0.921379 37.7029 0.65625 37.3848C0.39223 37.0679 0.25 36.6458 0.25 36.2139V1.92871C0.25 1.49697 0.392449 1.07558 0.65625 0.758789C0.921379 0.440634 1.29217 0.250015 1.69043 0.25H40.9766ZM25.5 21.4639C21.4121 21.4639 18.0117 25.4735 18.0117 30.5C18.0117 35.5265 21.4121 39.5361 25.5 39.5361C29.5879 39.5361 32.9883 35.5265 32.9883 30.5C32.9883 25.4735 29.5879 21.4639 25.5 21.4639ZM3.13086 34.5361H15.709C15.3412 33.27 15.1309 31.9152 15.1309 30.5C15.1309 23.7108 19.7414 18.1074 25.5 18.1074C31.2586 18.1074 35.8691 23.7108 35.8691 30.5C35.867 31.8749 35.6699 33.239 35.291 34.5361H39.5361V12.1787H3.13086V34.5361ZM3.13086 8.82129H39.5361V3.60742H3.13086V8.82129Z" fill="#3D3E40" stroke="#3D3E40" stroke-width="0.5"/>
<path d="M36.2146 4.78467H38.5956V7.64181H36.2146V4.78467ZM32.6432 4.78467H35.0242V7.64181H32.6432V4.78467ZM29.0718 4.78467H31.4527V7.64181H29.0718V4.78467ZM4.07178 4.78467H15.9765V7.64181H4.07178V4.78467Z" fill="#3D3E40"/>
</svg>
