<svg width="61" height="61" viewBox="0 0 61 61" fill="none" xmlns="http://www.w3.org/2000/svg">
<path d="M0.177843 58.8659C0.177843 60.0219 1.15598 61 2.31195 61H13.3382C14.4942 61 15.4723 60.0219 15.4723 58.8659V30.1443C15.4723 21.9636 22.1414 15.2945 30.3222 15.2945C38.5029 15.2945 45.172 21.9636 45.172 30.1443V58.5102C45.172 59.6662 46.1501 60.6443 47.3061 60.6443H58.3324C59.4883 60.6443 60.4665 59.6662 60.4665 58.5102V30.2332C60.4665 13.605 46.9504 0 30.2332 0C13.516 0 0 13.516 0 30.2332V58.8659H0.177843ZM4.44606 56.7318V49.707H11.293V56.7318H4.44606ZM49.5292 56.465V49.707H56.2872V56.465H49.5292ZM30.4111 4.26822C44.7274 4.26822 56.3761 15.9169 56.3761 30.2332V45.4388H49.5292V30.1443C49.5292 19.5627 40.9038 11.0262 30.4111 11.0262C19.9184 11.0262 11.293 19.6516 11.293 30.1443V45.3498H4.53499V30.2332C4.44606 15.9169 16.0948 4.26822 30.4111 4.26822Z" fill="#1F2278"/>
</svg>
