<svg width="60" height="60" viewBox="0 0 60 60" fill="none" xmlns="http://www.w3.org/2000/svg">
<path d="M21.9985 0C18.6818 0.00247989 15.9979 2.6886 16.0003 5.99854C15.9979 9.30847 18.6842 11.9946 22.0017 11.997H28.0022V6.00094C28.0046 2.691 25.3184 0.00487979 21.9985 0C22.0017 0 22.0017 0 21.9985 0ZM21.9985 15.9993H6.0016C2.68415 16.0018 -0.00214841 18.6879 0.000251481 21.9978C-0.00454831 25.3078 2.68172 27.9939 5.99838 27.9988H21.9985C25.316 27.9963 28.0022 25.3102 27.9998 22.0002C28.0022 18.6879 25.316 16.0018 21.9985 15.9993Z" fill="#36C5F0"/>
<path d="M59.9999 21.9978C60.0023 18.6879 57.316 16.0018 53.9986 15.9993C50.6819 16.0018 47.9956 18.6879 47.998 21.9978V27.9988H53.9986C57.316 27.9963 60.0023 25.3102 59.9999 21.9978ZM43.9998 21.9978V5.99854C44.0022 2.691 41.3183 0.00487979 38.0009 0C34.6842 0.00247989 31.998 2.6886 32.0004 5.99854V21.9978C31.9956 25.3078 34.6818 27.9939 37.9985 27.9988C41.3159 27.9963 44.0022 25.3102 43.9998 21.9978Z" fill="#2EB67D"/>
<path d="M37.9993 59.999C41.316 59.9966 44.0023 57.3105 43.9999 54.0005C44.0023 50.6906 41.316 48.0044 37.9993 48.002H31.998V54.0005C31.9956 57.308 34.6819 59.9942 37.9993 59.999ZM37.9993 43.9973H53.9995C57.3161 43.9949 60.0024 41.3087 60 37.9988C60.0048 34.6889 57.3185 32.0027 54.0018 31.9978H38.0018C34.6851 32.0003 31.998 34.6864 32.0004 37.9963C31.998 41.3087 34.6819 43.9949 37.9993 43.9973Z" fill="#ECB22E"/>
<path d="M1.60677e-06 37.9993C-0.00239829 41.3092 2.6839 43.9953 6.00135 43.9977C9.318 43.9953 12.0043 41.3092 12.0019 37.9993V32.0007H6.00135C2.6839 32.0032 -0.00239829 34.6893 1.60677e-06 37.9993ZM16.0001 37.9993V53.9986C15.9953 57.3085 18.6816 59.9947 21.9983 59.9995C25.3157 59.9971 28.002 57.3109 27.9996 54.001V38.0041C28.0044 34.6942 25.3181 32.0081 22.0014 32.0032C18.6816 32.0032 15.9977 34.6893 16.0001 37.9993Z" fill="#E01E5A"/>
</svg>
