<svg width="70" height="73" viewBox="0 0 70 73" fill="none" xmlns="http://www.w3.org/2000/svg">
<path d="M59.9867 10.0131L27.504 39.9971" stroke="#1F2278" stroke-width="5" stroke-miterlimit="10" stroke-linecap="round" stroke-linejoin="round"/>
<path d="M27.504 64.9837C41.3037 64.9837 52.4906 53.7968 52.4906 39.997C52.4906 26.1972 41.3037 15.0103 27.504 15.0103C13.7042 15.0103 2.51729 26.1972 2.51729 39.997C2.51729 53.7968 13.7042 64.9837 27.504 64.9837Z" stroke="#1F2278" stroke-width="5" stroke-miterlimit="10" stroke-linecap="round" stroke-linejoin="round"/>
<path d="M27.504 52.4915C34.4039 52.4915 39.9973 46.8981 39.9973 39.9982C39.9973 33.0983 34.4039 27.5049 27.504 27.5049C20.6041 27.5049 15.0106 33.0983 15.0106 39.9982C15.0106 46.8981 20.6041 52.4915 27.504 52.4915Z" stroke="#1F2278" stroke-width="5" stroke-miterlimit="10" stroke-linecap="round" stroke-linejoin="round"/>
<path d="M7.51457 69.9814L12.5119 59.9868" stroke="#1F2278" stroke-width="5" stroke-miterlimit="10" stroke-linecap="round" stroke-linejoin="round"/>
<path d="M47.4933 69.9814L42.496 59.9868" stroke="#1F2278" stroke-width="5" stroke-miterlimit="10" stroke-linecap="round" stroke-linejoin="round"/>
<path d="M59.9867 2.51729V10.0133H67.4827" stroke="#1F2278" stroke-width="5" stroke-miterlimit="10" stroke-linecap="round" stroke-linejoin="round"/>
<path d="M52.4906 10.0131V17.5091H59.9866" stroke="#1F2278" stroke-width="5" stroke-miterlimit="10" stroke-linecap="round" stroke-linejoin="round"/>
</svg>
