<svg width="48" height="50" viewBox="0 0 48 50" fill="none" xmlns="http://www.w3.org/2000/svg">
<path d="M41.4779 33.4091H14.8642C14.1927 33.4091 13.6063 32.8664 13.435 32.0873L7.16845 3.54849H1.47854C0.661646 3.54849 0 2.75452 0 1.77425C0 0.793975 0.661646 0 1.47854 0H8.30692C8.97843 0 9.56491 0.542624 9.73618 1.32181L11.4636 9.18616H45.9776C46.436 9.18616 46.8672 9.44047 47.1481 9.87664C47.4278 10.3113 47.5239 10.8776 47.4081 11.4099L42.9084 32.0843C42.7384 32.865 42.1507 33.4105 41.4779 33.4105V33.4091ZM16.0039 29.8606H40.3358L44.0629 12.7347H12.2435L16.0039 29.8606Z" fill="#3D3E40"/>
<path d="M17.0795 50C14.0361 50 11.5608 47.0297 11.5608 43.3777C11.5608 39.7257 14.0361 36.7553 17.0795 36.7553C20.1228 36.7553 22.5981 39.7257 22.5981 43.3777C22.5981 47.0297 20.1228 50 17.0795 50ZM17.0795 40.3053C15.6675 40.3053 14.5179 41.6847 14.5179 43.3791C14.5179 45.0735 15.6662 46.453 17.0795 46.453C18.4927 46.453 19.641 45.075 19.641 43.3791C19.641 41.6833 18.4915 40.3053 17.0795 40.3053Z" fill="#3D3E40"/>
<path d="M38.1463 50C35.1029 50 32.6276 47.0297 32.6276 43.3777C32.6276 39.7257 35.1029 36.7553 38.1463 36.7553C41.1896 36.7553 43.6649 39.7257 43.6649 43.3777C43.6649 47.0297 41.1896 50 38.1463 50ZM38.1463 40.3053C36.7343 40.3053 35.5847 41.6847 35.5847 43.3791C35.5847 45.0735 36.7343 46.453 38.1463 46.453C39.5583 46.453 40.7078 45.075 40.7078 43.3791C40.7078 41.6833 39.5583 40.3053 38.1463 40.3053Z" fill="#3D3E40"/>
</svg>
