<svg width="16" height="16" viewBox="0 0 16 16" fill="none" xmlns="http://www.w3.org/2000/svg">
<path d="M8.93739 14.9476L15.7175 8.32095C15.8202 8.22055 15.8931 8.11178 15.9363 7.99464C15.9794 7.8775 16.0007 7.75199 16 7.61812C16 7.48425 15.9784 7.35875 15.9353 7.24161C15.8921 7.12447 15.8195 7.0157 15.7175 6.91529L8.93739 0.288624C8.74906 0.10455 8.51347 0.00849722 8.23062 0.000464895C7.94777 -0.00756743 7.70397 0.0884855 7.49919 0.288624C7.29374 0.472698 7.18656 0.702959 7.17765 0.979405C7.16875 1.25585 7.26737 1.49414 7.47351 1.69428L12.5072 6.61408H1.02729C0.736226 6.61408 0.492075 6.71047 0.294836 6.90325C0.0975979 7.09602 -0.000679845 7.33431 4.78764e-06 7.61812C4.78764e-06 7.9026 0.0982826 8.14123 0.294836 8.334C0.491391 8.52678 0.735541 8.62283 1.02729 8.62216H12.5072L7.47351 13.542C7.28517 13.726 7.18656 13.9603 7.17765 14.2448C7.16875 14.5293 7.26737 14.7635 7.47351 14.9476C7.66185 15.1484 7.90155 15.2488 8.19261 15.2488C8.48367 15.2488 8.73194 15.1484 8.93739 14.9476Z" fill="#308DD3"/>
</svg>
