<svg width="22" height="15" viewBox="0 0 22 15" fill="none" xmlns="http://www.w3.org/2000/svg">
<g clip-path="url(#clip0_612_745)">
<path d="M21.6207 14.4141H0.379292C0.278698 14.4141 0.182223 14.3742 0.111092 14.303C0.039961 14.2319 0 14.1354 0 14.0348L0 0.379294C0 0.278699 0.039961 0.182222 0.111092 0.111091C0.182223 0.0399601 0.278698 0 0.379292 0H21.6207C21.7213 0 21.8178 0.0399601 21.8889 0.111091C21.96 0.182222 22 0.278699 22 0.379294V14.0348C22 14.1354 21.96 14.2319 21.8889 14.303C21.8178 14.3742 21.7213 14.4141 21.6207 14.4141Z" fill="#F5F5F5"/>
<path d="M22 1.10831H0V0.379294C0 0.278699 0.039961 0.182222 0.111092 0.111091C0.182223 0.0399601 0.278698 0 0.379292 0H21.6207C21.7213 0 21.8178 0.0399601 21.8889 0.111091C21.96 0.182222 22 0.278699 22 0.379294V1.10831Z" fill="#FF4B55"/>
<path d="M22 4.43487H0V5.54318H22V4.43487Z" fill="#FF4B55"/>
<path d="M22 2.21744H0V3.32575H22V2.21744Z" fill="#FF4B55"/>
<path d="M22 7.76156H0.379292C0.278698 7.76156 0.182223 7.72161 0.111092 7.65048C0.039961 7.57934 0 7.48287 0 7.38227L0 6.6553H22V7.76156Z" fill="#FF4B55"/>
<path d="M22 11.0882H0V12.1965H22V11.0882Z" fill="#FF4B55"/>
<path d="M21.6207 14.4129H0.379292C0.278698 14.4129 0.182223 14.373 0.111092 14.3019C0.039961 14.2307 0 14.1342 0 14.0336L0 13.3046H22V14.0336C22 14.0834 21.9902 14.1328 21.9711 14.1788C21.952 14.2248 21.9241 14.2666 21.8889 14.3019C21.8537 14.3371 21.8118 14.365 21.7658 14.3841C21.7198 14.4031 21.6705 14.4129 21.6207 14.4129Z" fill="#FF4B55"/>
<path d="M22 8.87074H0V9.97905H22V8.87074Z" fill="#FF4B55"/>
<path d="M9.86262 0H0.379292C0.278698 0 0.182223 0.0399601 0.111092 0.111091C0.039961 0.182222 0 0.278699 0 0.379294L0 7.38192C0 7.48252 0.039961 7.57899 0.111092 7.65013C0.182223 7.72126 0.278698 7.76122 0.379292 7.76122H9.8616C9.96219 7.76122 10.0587 7.72126 10.1298 7.65013C10.2009 7.57899 10.2409 7.48252 10.2409 7.38192V0.379294C10.2409 0.278876 10.2011 0.182551 10.1302 0.111449C10.0592 0.0403472 9.96304 0.000269941 9.86262 0Z" fill="#41479B"/>
<path d="M1.06852 0.871134L1.15213 1.12298H1.41723C1.42472 1.12298 1.43202 1.12533 1.43809 1.12971C1.44417 1.13409 1.44871 1.14027 1.45108 1.14738C1.45345 1.15449 1.45352 1.16216 1.45129 1.16931C1.44906 1.17646 1.44463 1.18272 1.43864 1.18722L1.22554 1.34525L1.30609 1.59812C1.30842 1.6053 1.3084 1.61303 1.30606 1.6202C1.30371 1.62737 1.29915 1.63362 1.29303 1.63804C1.28692 1.64246 1.27955 1.64482 1.27201 1.64479C1.26446 1.64476 1.25712 1.64235 1.25103 1.63788L1.03488 1.48392L0.818722 1.63788C0.812636 1.64235 0.805293 1.64476 0.797747 1.64479C0.7902 1.64482 0.782839 1.64246 0.776721 1.63804C0.770603 1.63362 0.766043 1.62737 0.763697 1.6202C0.761351 1.61303 0.761339 1.6053 0.763663 1.59812L0.844211 1.34525L0.631115 1.18722C0.625123 1.18272 0.620696 1.17646 0.618463 1.16931C0.61623 1.16216 0.616303 1.15449 0.618671 1.14738C0.62104 1.14027 0.625584 1.13409 0.63166 1.12971C0.637736 1.12533 0.645036 1.12298 0.652526 1.12298H0.917623L1.00123 0.871134C1.00369 0.864175 1.00825 0.858157 1.01427 0.853896C1.0203 0.849634 1.0275 0.847346 1.03488 0.847346C1.04226 0.847346 1.04946 0.849634 1.05548 0.853896C1.06151 0.858157 1.06606 0.864175 1.06852 0.871134Z" fill="#F5F5F5"/>
<path d="M1.06852 2.18845L1.15213 2.4403H1.41723C1.42472 2.4403 1.43202 2.44266 1.43809 2.44704C1.44417 2.45142 1.44871 2.45759 1.45108 2.4647C1.45345 2.4718 1.45352 2.47947 1.45129 2.48662C1.44906 2.49377 1.44463 2.50003 1.43864 2.50453L1.22554 2.66258L1.30609 2.91543C1.30842 2.92261 1.3084 2.93035 1.30606 2.93752C1.30371 2.94469 1.29915 2.95093 1.29303 2.95535C1.28692 2.95977 1.27955 2.96214 1.27201 2.96212C1.26446 2.96209 1.25712 2.95966 1.25103 2.95519L1.03488 2.80123L0.818722 2.95519C0.812636 2.95966 0.805293 2.96209 0.797747 2.96212C0.7902 2.96214 0.782839 2.95977 0.776721 2.95535C0.770603 2.95093 0.766043 2.94469 0.763697 2.93752C0.761351 2.93035 0.761339 2.92261 0.763663 2.91543L0.844211 2.66258L0.631115 2.50453C0.625123 2.50003 0.620696 2.49377 0.618463 2.48662C0.61623 2.47947 0.616303 2.4718 0.618671 2.4647C0.62104 2.45759 0.625584 2.45142 0.63166 2.44704C0.637736 2.44266 0.645036 2.4403 0.652526 2.4403H0.917623L1.00123 2.18845C1.00369 2.18149 1.00825 2.17548 1.01427 2.17121C1.0203 2.16695 1.0275 2.16466 1.03488 2.16466C1.04226 2.16466 1.04946 2.16695 1.05548 2.17121C1.06151 2.17548 1.06606 2.18149 1.06852 2.18845Z" fill="#F5F5F5"/>
<path d="M1.06852 3.5038L1.15213 3.75563H1.41723C1.42472 3.75563 1.43202 3.75799 1.43809 3.76237C1.44417 3.76675 1.44871 3.77294 1.45108 3.78004C1.45345 3.78715 1.45352 3.79481 1.45129 3.80196C1.44906 3.80911 1.44463 3.81538 1.43864 3.81987L1.22554 3.97791L1.30609 4.23077C1.30842 4.23795 1.3084 4.24567 1.30606 4.25285C1.30371 4.26002 1.29915 4.26627 1.29303 4.27069C1.28692 4.27511 1.27955 4.27747 1.27201 4.27744C1.26446 4.27742 1.25712 4.275 1.25103 4.27054L1.03488 4.11658L0.818722 4.27054C0.812636 4.275 0.805293 4.27742 0.797747 4.27744C0.7902 4.27747 0.782839 4.27511 0.776721 4.27069C0.770603 4.26627 0.766043 4.26002 0.763697 4.25285C0.761351 4.24567 0.761339 4.23795 0.763663 4.23077L0.844211 3.97791L0.631115 3.81987C0.625123 3.81538 0.620696 3.80911 0.618463 3.80196C0.61623 3.79481 0.616303 3.78715 0.618671 3.78004C0.62104 3.77294 0.625584 3.76675 0.63166 3.76237C0.637736 3.75799 0.645036 3.75563 0.652526 3.75563H0.917623L1.00123 3.5038C1.00369 3.49684 1.00825 3.4908 1.01427 3.48654C1.0203 3.48228 1.0275 3.47999 1.03488 3.47999C1.04226 3.47999 1.04946 3.48228 1.05548 3.48654C1.06151 3.4908 1.06606 3.49684 1.06852 3.5038Z" fill="#F5F5F5"/>
<path d="M1.06852 4.82309L1.15213 5.07494H1.41723C1.42472 5.07494 1.43202 5.0773 1.43809 5.08168C1.44417 5.08606 1.44871 5.09223 1.45108 5.09934C1.45345 5.10644 1.45352 5.11411 1.45129 5.12126C1.44906 5.12841 1.44463 5.13469 1.43864 5.13918L1.22554 5.29722L1.30609 5.55008C1.30842 5.55726 1.3084 5.56498 1.30606 5.57216C1.30371 5.57933 1.29915 5.58557 1.29303 5.58999C1.28692 5.59441 1.27955 5.59678 1.27201 5.59675C1.26446 5.59673 1.25712 5.59429 1.25103 5.58983L1.03488 5.43589L0.818722 5.58983C0.812636 5.59429 0.805293 5.59673 0.797747 5.59675C0.7902 5.59678 0.782839 5.59441 0.776721 5.58999C0.770603 5.58557 0.766043 5.57933 0.763697 5.57216C0.761351 5.56498 0.761339 5.55726 0.763663 5.55008L0.844211 5.29722L0.631115 5.13918C0.625123 5.13469 0.620696 5.12841 0.618463 5.12126C0.61623 5.11411 0.616303 5.10644 0.618671 5.09934C0.62104 5.09223 0.625584 5.08606 0.63166 5.08168C0.637736 5.0773 0.645036 5.07494 0.652526 5.07494H0.917623L1.00123 4.82309C1.00369 4.81613 1.00825 4.81011 1.01427 4.80585C1.0203 4.80159 1.0275 4.7993 1.03488 4.7993C1.04226 4.7993 1.04946 4.80159 1.05548 4.80585C1.06151 4.81011 1.06606 4.81613 1.06852 4.82309Z" fill="#F5F5F5"/>
<path d="M1.06852 6.13941L1.15213 6.39127H1.41723C1.42472 6.39127 1.43202 6.39362 1.43809 6.398C1.44417 6.40238 1.44871 6.40856 1.45108 6.41566C1.45345 6.42277 1.45352 6.43045 1.45129 6.4376C1.44906 6.44475 1.44463 6.45101 1.43864 6.4555L1.22554 6.61354L1.30609 6.8664C1.30842 6.87358 1.3084 6.88131 1.30606 6.88848C1.30371 6.89565 1.29915 6.90189 1.29303 6.90631C1.28692 6.91073 1.27955 6.91311 1.27201 6.91308C1.26446 6.91305 1.25712 6.91062 1.25103 6.90615L1.03488 6.75221L0.818722 6.90615C0.812636 6.91062 0.805293 6.91305 0.797747 6.91308C0.7902 6.91311 0.782839 6.91073 0.776721 6.90631C0.770603 6.90189 0.766043 6.89565 0.763697 6.88848C0.761351 6.88131 0.761339 6.87358 0.763663 6.8664L0.844211 6.61354L0.631115 6.4555C0.625123 6.45101 0.620696 6.44475 0.618463 6.4376C0.61623 6.43045 0.616303 6.42277 0.618671 6.41566C0.62104 6.40856 0.625584 6.40238 0.63166 6.398C0.637736 6.39362 0.645036 6.39127 0.652526 6.39127H0.917623L1.00123 6.13941C1.00369 6.13246 1.00825 6.12644 1.01427 6.12218C1.0203 6.11791 1.0275 6.11563 1.03488 6.11563C1.04226 6.11563 1.04946 6.11791 1.05548 6.12218C1.06151 6.12644 1.06606 6.13246 1.06852 6.13941Z" fill="#F5F5F5"/>
<path d="M2.08813 1.51636L2.17173 1.76819H2.43683C2.44432 1.76819 2.45162 1.77055 2.4577 1.77493C2.46377 1.77931 2.46832 1.78549 2.47069 1.7926C2.47305 1.7997 2.47313 1.80738 2.4709 1.81453C2.46866 1.82168 2.46423 1.82794 2.45824 1.83243L2.24515 1.99047L2.32569 2.24333C2.32802 2.25051 2.328 2.25825 2.32566 2.26542C2.32331 2.27259 2.31875 2.27884 2.31264 2.28326C2.30652 2.28767 2.29916 2.29003 2.29161 2.29001C2.28406 2.28998 2.27672 2.28756 2.27063 2.2831L2.05448 2.12914L1.83832 2.2831C1.83224 2.28756 1.8249 2.28998 1.81735 2.29001C1.8098 2.29003 1.80244 2.28767 1.79632 2.28326C1.79021 2.27884 1.78564 2.27259 1.7833 2.26542C1.78095 2.25825 1.78094 2.25051 1.78327 2.24333L1.86381 1.99047L1.65072 1.83243C1.64473 1.82794 1.6403 1.82168 1.63807 1.81453C1.63583 1.80738 1.63591 1.7997 1.63828 1.7926C1.64064 1.78549 1.64519 1.77931 1.65126 1.77493C1.65734 1.77055 1.66464 1.76819 1.67213 1.76819H1.93722L2.02083 1.51636C2.02329 1.5094 2.02785 1.50337 2.03387 1.49911C2.0399 1.49485 2.0471 1.49256 2.05448 1.49256C2.06186 1.49256 2.06906 1.49485 2.07509 1.49911C2.08111 1.50337 2.08567 1.5094 2.08813 1.51636Z" fill="#F5F5F5"/>
<path d="M2.08813 2.83468L2.17173 3.08652H2.43683C2.44432 3.08652 2.45162 3.08887 2.4577 3.09325C2.46377 3.09763 2.46832 3.10382 2.47069 3.11093C2.47305 3.11803 2.47313 3.1257 2.4709 3.13285C2.46866 3.14 2.46423 3.14626 2.45824 3.15076L2.24515 3.30879L2.32569 3.56166C2.32802 3.56884 2.328 3.57658 2.32566 3.58375C2.32331 3.59092 2.31875 3.59716 2.31264 3.60158C2.30652 3.606 2.29916 3.60836 2.29161 3.60833C2.28406 3.6083 2.27672 3.60589 2.27063 3.60142L2.05448 3.44746L1.83832 3.60142C1.83224 3.60589 1.8249 3.6083 1.81735 3.60833C1.8098 3.60836 1.80244 3.606 1.79632 3.60158C1.79021 3.59716 1.78564 3.59092 1.7833 3.58375C1.78095 3.57658 1.78094 3.56884 1.78327 3.56166L1.86381 3.30879L1.65072 3.15076C1.64473 3.14626 1.6403 3.14 1.63807 3.13285C1.63583 3.1257 1.63591 3.11803 1.63828 3.11093C1.64064 3.10382 1.64519 3.09763 1.65126 3.09325C1.65734 3.08887 1.66464 3.08652 1.67213 3.08652H1.93722L2.02083 2.83468C2.02329 2.82772 2.02785 2.82169 2.03387 2.81743C2.0399 2.81317 2.0471 2.81088 2.05448 2.81088C2.06186 2.81088 2.06906 2.81317 2.07509 2.81743C2.08111 2.82169 2.08567 2.82772 2.08813 2.83468Z" fill="#F5F5F5"/>
<path d="M2.08813 4.15099L2.17173 4.40284H2.43683C2.44432 4.40284 2.45162 4.4052 2.4577 4.40958C2.46377 4.41396 2.46832 4.42013 2.47069 4.42724C2.47305 4.43434 2.47313 4.44201 2.4709 4.44916C2.46866 4.45631 2.46423 4.46259 2.45824 4.46708L2.24515 4.62512L2.32569 4.87798C2.32802 4.88516 2.328 4.89288 2.32566 4.90006C2.32331 4.90723 2.31875 4.91347 2.31264 4.91789C2.30652 4.9223 2.29916 4.92468 2.29161 4.92465C2.28406 4.92463 2.27672 4.92219 2.27063 4.91773L2.05448 4.76378L1.83832 4.91773C1.83224 4.92219 1.8249 4.92463 1.81735 4.92465C1.8098 4.92468 1.80244 4.9223 1.79632 4.91789C1.79021 4.91347 1.78564 4.90723 1.7833 4.90006C1.78095 4.89288 1.78094 4.88516 1.78327 4.87798L1.86381 4.62512L1.65072 4.46708C1.64473 4.46259 1.6403 4.45631 1.63807 4.44916C1.63583 4.44201 1.63591 4.43434 1.63828 4.42724C1.64064 4.42013 1.64519 4.41396 1.65126 4.40958C1.65734 4.4052 1.66464 4.40284 1.67213 4.40284H1.93722L2.02083 4.15099C2.02329 4.14403 2.02785 4.13801 2.03387 4.13375C2.0399 4.12949 2.0471 4.1272 2.05448 4.1272C2.06186 4.1272 2.06906 4.12949 2.07509 4.13375C2.08111 4.13801 2.08567 4.14403 2.08813 4.15099Z" fill="#F5F5F5"/>
<path d="M2.08813 5.46832L2.17173 5.72016H2.43683C2.44432 5.72016 2.45162 5.72252 2.4577 5.7269C2.46377 5.73128 2.46832 5.73746 2.47069 5.74457C2.47305 5.75168 2.47313 5.75934 2.4709 5.76649C2.46866 5.77364 2.46423 5.7799 2.45824 5.7844L2.24515 5.94244L2.32569 6.1953C2.32802 6.20248 2.328 6.21022 2.32566 6.21739C2.32331 6.22456 2.31875 6.2308 2.31264 6.23522C2.30652 6.23964 2.29916 6.242 2.29161 6.24197C2.28406 6.24194 2.27672 6.23953 2.27063 6.23506L2.05448 6.0811L1.83832 6.23506C1.83224 6.23953 1.8249 6.24194 1.81735 6.24197C1.8098 6.242 1.80244 6.23964 1.79632 6.23522C1.79021 6.2308 1.78564 6.22456 1.7833 6.21739C1.78095 6.21022 1.78094 6.20248 1.78327 6.1953L1.86381 5.94244L1.65072 5.7844C1.64473 5.7799 1.6403 5.77364 1.63807 5.76649C1.63583 5.75934 1.63591 5.75168 1.63828 5.74457C1.64064 5.73746 1.64519 5.73128 1.65126 5.7269C1.65734 5.72252 1.66464 5.72016 1.67213 5.72016H1.93722L2.02083 5.46832C2.02329 5.46137 2.02785 5.45533 2.03387 5.45107C2.0399 5.44681 2.0471 5.44452 2.05448 5.44452C2.06186 5.44452 2.06906 5.44681 2.07509 5.45107C2.08111 5.45533 2.08567 5.46137 2.08813 5.46832Z" fill="#F5F5F5"/>
<path d="M3.11084 0.871134L3.19445 1.12298H3.45955C3.46704 1.12298 3.47434 1.12533 3.48041 1.12971C3.48649 1.13409 3.49103 1.14027 3.4934 1.14738C3.49577 1.15449 3.49584 1.16216 3.49361 1.16931C3.49138 1.17646 3.48695 1.18272 3.48096 1.18722L3.26786 1.34525L3.34841 1.59812C3.35073 1.6053 3.35072 1.61303 3.34837 1.6202C3.34603 1.62737 3.34147 1.63362 3.33535 1.63804C3.32923 1.64246 3.32187 1.64482 3.31432 1.64479C3.30678 1.64476 3.29944 1.64235 3.29335 1.63788L3.07719 1.48392L2.86104 1.63788C2.85495 1.64235 2.84761 1.64476 2.84007 1.64479C2.83252 1.64482 2.82516 1.64246 2.81904 1.63804C2.81292 1.63362 2.80836 1.62737 2.80602 1.6202C2.80367 1.61303 2.80366 1.6053 2.80598 1.59812L2.88653 1.34525L2.67343 1.18722C2.66744 1.18272 2.66301 1.17646 2.66078 1.16931C2.65855 1.16216 2.65862 1.15449 2.66099 1.14738C2.66336 1.14027 2.6679 1.13409 2.67398 1.12971C2.68005 1.12533 2.68735 1.12298 2.69484 1.12298H2.95994L3.04355 0.871134C3.04601 0.864175 3.05056 0.858157 3.05659 0.853896C3.06261 0.849634 3.06981 0.847346 3.07719 0.847346C3.08458 0.847346 3.09178 0.849634 3.0978 0.853896C3.10383 0.858157 3.10838 0.864175 3.11084 0.871134Z" fill="#F5F5F5"/>
<path d="M3.11084 2.18747L3.19445 2.43931H3.45955C3.46704 2.43931 3.47434 2.44167 3.48041 2.44605C3.48649 2.45042 3.49103 2.45661 3.4934 2.46372C3.49577 2.47082 3.49584 2.47849 3.49361 2.48564C3.49138 2.49279 3.48695 2.49905 3.48096 2.50355L3.26786 2.66158L3.34841 2.91445C3.35073 2.92163 3.35072 2.92935 3.34837 2.93652C3.34603 2.9437 3.34147 2.94995 3.33535 2.95437C3.32923 2.95879 3.32187 2.96115 3.31432 2.96112C3.30678 2.96109 3.29944 2.95868 3.29335 2.95421L3.07719 2.80025L2.86104 2.95421C2.85495 2.95868 2.84761 2.96109 2.84007 2.96112C2.83252 2.96115 2.82516 2.95879 2.81904 2.95437C2.81292 2.94995 2.80836 2.9437 2.80602 2.93652C2.80367 2.92935 2.80366 2.92163 2.80598 2.91445L2.88653 2.66158L2.67343 2.50355C2.66744 2.49905 2.66301 2.49279 2.66078 2.48564C2.65855 2.47849 2.65862 2.47082 2.66099 2.46372C2.66336 2.45661 2.6679 2.45042 2.67398 2.44605C2.68005 2.44167 2.68735 2.43931 2.69484 2.43931H2.95994L3.04355 2.18747C3.04601 2.18051 3.05056 2.17448 3.05659 2.17022C3.06261 2.16596 3.06981 2.16367 3.07719 2.16367C3.08458 2.16367 3.09178 2.16596 3.0978 2.17022C3.10383 2.17448 3.10838 2.18051 3.11084 2.18747Z" fill="#F5F5F5"/>
<path d="M3.11084 3.5038L3.19445 3.75563H3.45955C3.46704 3.75563 3.47434 3.75799 3.48041 3.76237C3.48649 3.76675 3.49103 3.77294 3.4934 3.78004C3.49577 3.78715 3.49584 3.79481 3.49361 3.80196C3.49138 3.80911 3.48695 3.81538 3.48096 3.81987L3.26786 3.97791L3.34841 4.23077C3.35073 4.23795 3.35072 4.24567 3.34837 4.25285C3.34603 4.26002 3.34147 4.26627 3.33535 4.27069C3.32923 4.27511 3.32187 4.27747 3.31432 4.27744C3.30678 4.27742 3.29944 4.275 3.29335 4.27054L3.07719 4.11658L2.86104 4.27054C2.85495 4.275 2.84761 4.27742 2.84007 4.27744C2.83252 4.27747 2.82516 4.27511 2.81904 4.27069C2.81292 4.26627 2.80836 4.26002 2.80602 4.25285C2.80367 4.24567 2.80366 4.23795 2.80598 4.23077L2.88653 3.97791L2.67343 3.81987C2.66744 3.81538 2.66301 3.80911 2.66078 3.80196C2.65855 3.79481 2.65862 3.78715 2.66099 3.78004C2.66336 3.77294 2.6679 3.76675 2.67398 3.76237C2.68005 3.75799 2.68735 3.75563 2.69484 3.75563H2.95994L3.04355 3.5038C3.04601 3.49684 3.05056 3.4908 3.05659 3.48654C3.06261 3.48228 3.06981 3.47999 3.07719 3.47999C3.08458 3.47999 3.09178 3.48228 3.0978 3.48654C3.10383 3.4908 3.10838 3.49684 3.11084 3.5038Z" fill="#F5F5F5"/>
<path d="M3.11084 4.82309L3.19445 5.07494H3.45955C3.46704 5.07494 3.47434 5.0773 3.48041 5.08168C3.48649 5.08606 3.49103 5.09223 3.4934 5.09934C3.49577 5.10644 3.49584 5.11411 3.49361 5.12126C3.49138 5.12841 3.48695 5.13469 3.48096 5.13918L3.26786 5.29722L3.34841 5.55008C3.35073 5.55726 3.35072 5.56498 3.34837 5.57216C3.34603 5.57933 3.34147 5.58557 3.33535 5.58999C3.32923 5.59441 3.32187 5.59678 3.31432 5.59675C3.30678 5.59673 3.29944 5.59429 3.29335 5.58983L3.07719 5.43589L2.86104 5.58983C2.85495 5.59429 2.84761 5.59673 2.84007 5.59675C2.83252 5.59678 2.82516 5.59441 2.81904 5.58999C2.81292 5.58557 2.80836 5.57933 2.80602 5.57216C2.80367 5.56498 2.80366 5.55726 2.80598 5.55008L2.88653 5.29722L2.67343 5.13918C2.66744 5.13469 2.66301 5.12841 2.66078 5.12126C2.65855 5.11411 2.65862 5.10644 2.66099 5.09934C2.66336 5.09223 2.6679 5.08606 2.67398 5.08168C2.68005 5.0773 2.68735 5.07494 2.69484 5.07494H2.95994L3.04355 4.82309C3.04601 4.81613 3.05056 4.81011 3.05659 4.80585C3.06261 4.80159 3.06981 4.7993 3.07719 4.7993C3.08458 4.7993 3.09178 4.80159 3.0978 4.80585C3.10383 4.81011 3.10838 4.81613 3.11084 4.82309Z" fill="#F5F5F5"/>
<path d="M3.11084 6.13941L3.19445 6.39127H3.45955C3.46704 6.39127 3.47434 6.39362 3.48041 6.398C3.48649 6.40238 3.49103 6.40856 3.4934 6.41566C3.49577 6.42277 3.49584 6.43045 3.49361 6.4376C3.49138 6.44475 3.48695 6.45101 3.48096 6.4555L3.26786 6.61354L3.34841 6.8664C3.35073 6.87358 3.35072 6.88131 3.34837 6.88848C3.34603 6.89565 3.34147 6.90189 3.33535 6.90631C3.32923 6.91073 3.32187 6.91311 3.31432 6.91308C3.30678 6.91305 3.29944 6.91062 3.29335 6.90615L3.07719 6.75221L2.86104 6.90615C2.85495 6.91062 2.84761 6.91305 2.84007 6.91308C2.83252 6.91311 2.82516 6.91073 2.81904 6.90631C2.81292 6.90189 2.80836 6.89565 2.80602 6.88848C2.80367 6.88131 2.80366 6.87358 2.80598 6.8664L2.88653 6.61354L2.67343 6.4555C2.66744 6.45101 2.66301 6.44475 2.66078 6.4376C2.65855 6.43045 2.65862 6.42277 2.66099 6.41566C2.66336 6.40856 2.6679 6.40238 2.67398 6.398C2.68005 6.39362 2.68735 6.39127 2.69484 6.39127H2.95994L3.04355 6.13941C3.04601 6.13246 3.05056 6.12644 3.05659 6.12218C3.06261 6.11791 3.06981 6.11563 3.07719 6.11563C3.08458 6.11563 3.09178 6.11791 3.0978 6.12218C3.10383 6.12644 3.10838 6.13246 3.11084 6.13941Z" fill="#F5F5F5"/>
<path d="M4.13344 1.51636L4.21704 1.76819H4.48214C4.48963 1.76819 4.49693 1.77055 4.50301 1.77493C4.50908 1.77931 4.51362 1.78549 4.51599 1.7926C4.51836 1.7997 4.51843 1.80738 4.5162 1.81453C4.51397 1.82168 4.50954 1.82794 4.50355 1.83243L4.29045 1.99047L4.371 2.24333C4.37332 2.25051 4.37331 2.25825 4.37097 2.26542C4.36862 2.27259 4.36406 2.27884 4.35795 2.28326C4.35183 2.28767 4.34447 2.29003 4.33692 2.29001C4.32937 2.28998 4.32202 2.28756 4.31594 2.2831L4.09978 2.12914L3.88363 2.2831C3.87755 2.28756 3.87021 2.28998 3.86266 2.29001C3.85511 2.29003 3.84775 2.28767 3.84163 2.28326C3.83551 2.27884 3.83095 2.27259 3.8286 2.26542C3.82626 2.25825 3.82625 2.25051 3.82857 2.24333L3.90912 1.99047L3.69603 1.83243C3.69003 1.82794 3.6856 1.82168 3.68337 1.81453C3.68114 1.80738 3.68121 1.7997 3.68358 1.7926C3.68595 1.78549 3.69049 1.77931 3.69657 1.77493C3.70265 1.77055 3.70994 1.76819 3.71743 1.76819H3.98253L4.06614 1.51636C4.0686 1.5094 4.07315 1.50337 4.07918 1.49911C4.0852 1.49485 4.0924 1.49256 4.09978 1.49256C4.10717 1.49256 4.11437 1.49485 4.12039 1.49911C4.12642 1.50337 4.13098 1.5094 4.13344 1.51636Z" fill="#F5F5F5"/>
<path d="M4.13344 2.83468L4.21704 3.08652H4.48214C4.48963 3.08652 4.49693 3.08887 4.50301 3.09325C4.50908 3.09763 4.51362 3.10382 4.51599 3.11093C4.51836 3.11803 4.51843 3.1257 4.5162 3.13285C4.51397 3.14 4.50954 3.14626 4.50355 3.15076L4.29045 3.30879L4.371 3.56166C4.37332 3.56884 4.37331 3.57658 4.37097 3.58375C4.36862 3.59092 4.36406 3.59716 4.35795 3.60158C4.35183 3.606 4.34447 3.60836 4.33692 3.60833C4.32937 3.6083 4.32202 3.60589 4.31594 3.60142L4.09978 3.44746L3.88363 3.60142C3.87755 3.60589 3.87021 3.6083 3.86266 3.60833C3.85511 3.60836 3.84775 3.606 3.84163 3.60158C3.83551 3.59716 3.83095 3.59092 3.8286 3.58375C3.82626 3.57658 3.82625 3.56884 3.82857 3.56166L3.90912 3.30879L3.69603 3.15076C3.69003 3.14626 3.6856 3.14 3.68337 3.13285C3.68114 3.1257 3.68121 3.11803 3.68358 3.11093C3.68595 3.10382 3.69049 3.09763 3.69657 3.09325C3.70265 3.08887 3.70994 3.08652 3.71743 3.08652H3.98253L4.06614 2.83468C4.0686 2.82772 4.07315 2.82169 4.07918 2.81743C4.0852 2.81317 4.0924 2.81088 4.09978 2.81088C4.10717 2.81088 4.11437 2.81317 4.12039 2.81743C4.12642 2.82169 4.13098 2.82772 4.13344 2.83468Z" fill="#F5F5F5"/>
<path d="M4.13344 4.15099L4.21704 4.40284H4.48214C4.48963 4.40284 4.49693 4.4052 4.50301 4.40958C4.50908 4.41396 4.51362 4.42013 4.51599 4.42724C4.51836 4.43434 4.51843 4.44201 4.5162 4.44916C4.51397 4.45631 4.50954 4.46259 4.50355 4.46708L4.29045 4.62512L4.371 4.87798C4.37332 4.88516 4.37331 4.89288 4.37097 4.90006C4.36862 4.90723 4.36406 4.91347 4.35795 4.91789C4.35183 4.9223 4.34447 4.92468 4.33692 4.92465C4.32937 4.92463 4.32202 4.92219 4.31594 4.91773L4.09978 4.76378L3.88363 4.91773C3.87755 4.92219 3.87021 4.92463 3.86266 4.92465C3.85511 4.92468 3.84775 4.9223 3.84163 4.91789C3.83551 4.91347 3.83095 4.90723 3.8286 4.90006C3.82626 4.89288 3.82625 4.88516 3.82857 4.87798L3.90912 4.62512L3.69603 4.46708C3.69003 4.46259 3.6856 4.45631 3.68337 4.44916C3.68114 4.44201 3.68121 4.43434 3.68358 4.42724C3.68595 4.42013 3.69049 4.41396 3.69657 4.40958C3.70265 4.4052 3.70994 4.40284 3.71743 4.40284H3.98253L4.06614 4.15099C4.0686 4.14403 4.07315 4.13801 4.07918 4.13375C4.0852 4.12949 4.0924 4.1272 4.09978 4.1272C4.10717 4.1272 4.11437 4.12949 4.12039 4.13375C4.12642 4.13801 4.13098 4.14403 4.13344 4.15099Z" fill="#F5F5F5"/>
<path d="M4.13344 5.46832L4.21704 5.72016H4.48214C4.48963 5.72016 4.49693 5.72252 4.50301 5.7269C4.50908 5.73128 4.51362 5.73746 4.51599 5.74457C4.51836 5.75168 4.51843 5.75934 4.5162 5.76649C4.51397 5.77364 4.50954 5.7799 4.50355 5.7844L4.29045 5.94244L4.371 6.1953C4.37332 6.20248 4.37331 6.21022 4.37097 6.21739C4.36862 6.22456 4.36406 6.2308 4.35795 6.23522C4.35183 6.23964 4.34447 6.242 4.33692 6.24197C4.32937 6.24194 4.32202 6.23953 4.31594 6.23506L4.09978 6.0811L3.88363 6.23506C3.87755 6.23953 3.87021 6.24194 3.86266 6.24197C3.85511 6.242 3.84775 6.23964 3.84163 6.23522C3.83551 6.2308 3.83095 6.22456 3.8286 6.21739C3.82626 6.21022 3.82625 6.20248 3.82857 6.1953L3.90912 5.94244L3.69603 5.7844C3.69003 5.7799 3.6856 5.77364 3.68337 5.76649C3.68114 5.75934 3.68121 5.75168 3.68358 5.74457C3.68595 5.73746 3.69049 5.73128 3.69657 5.7269C3.70265 5.72252 3.70994 5.72016 3.71743 5.72016H3.98253L4.06614 5.46832C4.0686 5.46137 4.07315 5.45533 4.07918 5.45107C4.0852 5.44681 4.0924 5.44452 4.09978 5.44452C4.10717 5.44452 4.11437 5.44681 4.12039 5.45107C4.12642 5.45533 4.13098 5.46137 4.13344 5.46832Z" fill="#F5F5F5"/>
<path d="M5.15503 0.871134L5.23863 1.12298H5.50373C5.51122 1.12298 5.51853 1.12533 5.5246 1.12971C5.53068 1.13409 5.53522 1.14027 5.53758 1.14738C5.53995 1.15449 5.54003 1.16216 5.53779 1.16931C5.53556 1.17646 5.53114 1.18272 5.52515 1.18722L5.31205 1.34525L5.39259 1.59812C5.39492 1.6053 5.39491 1.61303 5.39256 1.6202C5.39022 1.62737 5.38566 1.63362 5.37954 1.63804C5.37342 1.64246 5.36606 1.64482 5.35851 1.64479C5.35097 1.64476 5.34362 1.64235 5.33753 1.63788L5.12138 1.48392L4.90523 1.63788C4.89914 1.64235 4.8918 1.64476 4.88425 1.64479C4.87671 1.64482 4.86934 1.64246 4.86323 1.63804C4.85711 1.63362 4.85254 1.62737 4.8502 1.6202C4.84785 1.61303 4.84784 1.6053 4.85017 1.59812L4.93072 1.34525L4.71762 1.18722C4.71163 1.18272 4.7072 1.17646 4.70496 1.16931C4.70273 1.16216 4.70281 1.15449 4.70517 1.14738C4.70754 1.14027 4.71209 1.13409 4.71817 1.12971C4.72424 1.12533 4.73154 1.12298 4.73903 1.12298H5.00413L5.08774 0.871134C5.09019 0.864175 5.09475 0.858157 5.10077 0.853896C5.1068 0.849634 5.114 0.847346 5.12138 0.847346C5.12876 0.847346 5.13596 0.849634 5.14199 0.853896C5.14801 0.858157 5.15257 0.864175 5.15503 0.871134Z" fill="#F5F5F5"/>
<path d="M5.15503 2.18747L5.23863 2.43931H5.50373C5.51122 2.43931 5.51853 2.44167 5.5246 2.44605C5.53068 2.45042 5.53522 2.45661 5.53758 2.46372C5.53995 2.47082 5.54003 2.47849 5.53779 2.48564C5.53556 2.49279 5.53114 2.49905 5.52515 2.50355L5.31205 2.66158L5.39259 2.91445C5.39492 2.92163 5.39491 2.92935 5.39256 2.93652C5.39022 2.9437 5.38566 2.94995 5.37954 2.95437C5.37342 2.95879 5.36606 2.96115 5.35851 2.96112C5.35097 2.96109 5.34362 2.95868 5.33753 2.95421L5.12138 2.80025L4.90523 2.95421C4.89914 2.95868 4.8918 2.96109 4.88425 2.96112C4.87671 2.96115 4.86934 2.95879 4.86323 2.95437C4.85711 2.94995 4.85254 2.9437 4.8502 2.93652C4.84785 2.92935 4.84784 2.92163 4.85017 2.91445L4.93072 2.66158L4.71762 2.50355C4.71163 2.49905 4.7072 2.49279 4.70496 2.48564C4.70273 2.47849 4.70281 2.47082 4.70517 2.46372C4.70754 2.45661 4.71209 2.45042 4.71817 2.44605C4.72424 2.44167 4.73154 2.43931 4.73903 2.43931H5.00413L5.08774 2.18747C5.09019 2.18051 5.09475 2.17448 5.10077 2.17022C5.1068 2.16596 5.114 2.16367 5.12138 2.16367C5.12876 2.16367 5.13596 2.16596 5.14199 2.17022C5.14801 2.17448 5.15257 2.18051 5.15503 2.18747Z" fill="#F5F5F5"/>
<path d="M5.15503 3.5038L5.23863 3.75563H5.50373C5.51122 3.75563 5.51853 3.75799 5.5246 3.76237C5.53068 3.76675 5.53522 3.77294 5.53758 3.78004C5.53995 3.78715 5.54003 3.79481 5.53779 3.80196C5.53556 3.80911 5.53114 3.81538 5.52515 3.81987L5.31205 3.97791L5.39259 4.23077C5.39492 4.23795 5.39491 4.24567 5.39256 4.25285C5.39022 4.26002 5.38566 4.26627 5.37954 4.27069C5.37342 4.27511 5.36606 4.27747 5.35851 4.27744C5.35097 4.27742 5.34362 4.275 5.33753 4.27054L5.12138 4.11658L4.90523 4.27054C4.89914 4.275 4.8918 4.27742 4.88425 4.27744C4.87671 4.27747 4.86934 4.27511 4.86323 4.27069C4.85711 4.26627 4.85254 4.26002 4.8502 4.25285C4.84785 4.24567 4.84784 4.23795 4.85017 4.23077L4.93072 3.97791L4.71762 3.81987C4.71163 3.81538 4.7072 3.80911 4.70496 3.80196C4.70273 3.79481 4.70281 3.78715 4.70517 3.78004C4.70754 3.77294 4.71209 3.76675 4.71817 3.76237C4.72424 3.75799 4.73154 3.75563 4.73903 3.75563H5.00413L5.08774 3.5038C5.09019 3.49684 5.09475 3.4908 5.10077 3.48654C5.1068 3.48228 5.114 3.47999 5.12138 3.47999C5.12876 3.47999 5.13596 3.48228 5.14199 3.48654C5.14801 3.4908 5.15257 3.49684 5.15503 3.5038Z" fill="#F5F5F5"/>
<path d="M5.15503 4.82309L5.23863 5.07494H5.50373C5.51122 5.07494 5.51853 5.0773 5.5246 5.08168C5.53068 5.08606 5.53522 5.09223 5.53758 5.09934C5.53995 5.10644 5.54003 5.11411 5.53779 5.12126C5.53556 5.12841 5.53114 5.13469 5.52515 5.13918L5.31205 5.29722L5.39259 5.55008C5.39492 5.55726 5.39491 5.56498 5.39256 5.57216C5.39022 5.57933 5.38566 5.58557 5.37954 5.58999C5.37342 5.59441 5.36606 5.59678 5.35851 5.59675C5.35097 5.59673 5.34362 5.59429 5.33753 5.58983L5.12138 5.43589L4.90523 5.58983C4.89914 5.59429 4.8918 5.59673 4.88425 5.59675C4.87671 5.59678 4.86934 5.59441 4.86323 5.58999C4.85711 5.58557 4.85254 5.57933 4.8502 5.57216C4.84785 5.56498 4.84784 5.55726 4.85017 5.55008L4.93072 5.29722L4.71762 5.13918C4.71163 5.13469 4.7072 5.12841 4.70496 5.12126C4.70273 5.11411 4.70281 5.10644 4.70517 5.09934C4.70754 5.09223 4.71209 5.08606 4.71817 5.08168C4.72424 5.0773 4.73154 5.07494 4.73903 5.07494H5.00413L5.08774 4.82309C5.09019 4.81613 5.09475 4.81011 5.10077 4.80585C5.1068 4.80159 5.114 4.7993 5.12138 4.7993C5.12876 4.7993 5.13596 4.80159 5.14199 4.80585C5.14801 4.81011 5.15257 4.81613 5.15503 4.82309Z" fill="#F5F5F5"/>
<path d="M5.15503 6.13941L5.23863 6.39127H5.50373C5.51122 6.39127 5.51853 6.39362 5.5246 6.398C5.53068 6.40238 5.53522 6.40856 5.53758 6.41566C5.53995 6.42277 5.54003 6.43045 5.53779 6.4376C5.53556 6.44475 5.53114 6.45101 5.52515 6.4555L5.31205 6.61354L5.39259 6.8664C5.39492 6.87358 5.39491 6.88131 5.39256 6.88848C5.39022 6.89565 5.38566 6.90189 5.37954 6.90631C5.37342 6.91073 5.36606 6.91311 5.35851 6.91308C5.35097 6.91305 5.34362 6.91062 5.33753 6.90615L5.12138 6.75221L4.90523 6.90615C4.89914 6.91062 4.8918 6.91305 4.88425 6.91308C4.87671 6.91311 4.86934 6.91073 4.86323 6.90631C4.85711 6.90189 4.85254 6.89565 4.8502 6.88848C4.84785 6.88131 4.84784 6.87358 4.85017 6.8664L4.93072 6.61354L4.71762 6.4555C4.71163 6.45101 4.7072 6.44475 4.70496 6.4376C4.70273 6.43045 4.70281 6.42277 4.70517 6.41566C4.70754 6.40856 4.71209 6.40238 4.71817 6.398C4.72424 6.39362 4.73154 6.39127 4.73903 6.39127H5.00413L5.08774 6.13941C5.09019 6.13246 5.09475 6.12644 5.10077 6.12218C5.1068 6.11791 5.114 6.11563 5.12138 6.11563C5.12876 6.11563 5.13596 6.11791 5.14199 6.12218C5.14801 6.12644 5.15257 6.13246 5.15503 6.13941Z" fill="#F5F5F5"/>
<path d="M6.17773 1.51636L6.26134 1.76819H6.52645C6.53394 1.76819 6.54124 1.77055 6.54731 1.77493C6.55339 1.77931 6.55793 1.78549 6.5603 1.7926C6.56267 1.7997 6.56274 1.80738 6.56051 1.81453C6.55827 1.82168 6.55385 1.82794 6.54786 1.83243L6.33476 1.99047L6.4153 2.24333C6.41763 2.25051 6.41762 2.25825 6.41527 2.26542C6.41293 2.27259 6.40837 2.27884 6.40225 2.28326C6.39613 2.28767 6.38878 2.29003 6.38123 2.29001C6.37368 2.28998 6.36633 2.28756 6.36024 2.2831L6.1441 2.12914L5.92794 2.2831C5.92185 2.28756 5.91451 2.28998 5.90696 2.29001C5.89942 2.29003 5.89205 2.28767 5.88593 2.28326C5.87981 2.27884 5.87525 2.27259 5.87291 2.26542C5.87056 2.25825 5.87055 2.25051 5.87288 2.24333L5.95342 1.99047L5.74032 1.83243C5.73433 1.82794 5.72991 1.82168 5.72767 1.81453C5.72544 1.80738 5.72552 1.7997 5.72789 1.7926C5.73026 1.78549 5.73479 1.77931 5.74087 1.77493C5.74694 1.77055 5.75426 1.76819 5.76175 1.76819H6.02684L6.11045 1.51636C6.11291 1.5094 6.11746 1.50337 6.12348 1.49911C6.12951 1.49485 6.13672 1.49256 6.1441 1.49256C6.15148 1.49256 6.15867 1.49485 6.1647 1.49911C6.17072 1.50337 6.17527 1.5094 6.17773 1.51636Z" fill="#F5F5F5"/>
<path d="M6.17773 2.83468L6.26134 3.08652H6.52645C6.53394 3.08652 6.54124 3.08887 6.54731 3.09325C6.55339 3.09763 6.55793 3.10382 6.5603 3.11093C6.56267 3.11803 6.56274 3.1257 6.56051 3.13285C6.55827 3.14 6.55385 3.14626 6.54786 3.15076L6.33476 3.30879L6.4153 3.56166C6.41763 3.56884 6.41762 3.57658 6.41527 3.58375C6.41293 3.59092 6.40837 3.59716 6.40225 3.60158C6.39613 3.606 6.38878 3.60836 6.38123 3.60833C6.37368 3.6083 6.36633 3.60589 6.36024 3.60142L6.1441 3.44746L5.92794 3.60142C5.92185 3.60589 5.91451 3.6083 5.90696 3.60833C5.89942 3.60836 5.89205 3.606 5.88593 3.60158C5.87981 3.59716 5.87525 3.59092 5.87291 3.58375C5.87056 3.57658 5.87055 3.56884 5.87288 3.56166L5.95342 3.30879L5.74032 3.15076C5.73433 3.14626 5.72991 3.14 5.72767 3.13285C5.72544 3.1257 5.72552 3.11803 5.72789 3.11093C5.73026 3.10382 5.73479 3.09763 5.74087 3.09325C5.74694 3.08887 5.75426 3.08652 5.76175 3.08652H6.02684L6.11045 2.83468C6.11291 2.82772 6.11746 2.82169 6.12348 2.81743C6.12951 2.81317 6.13672 2.81088 6.1441 2.81088C6.15148 2.81088 6.15867 2.81317 6.1647 2.81743C6.17072 2.82169 6.17527 2.82772 6.17773 2.83468Z" fill="#F5F5F5"/>
<path d="M6.17773 4.15099L6.26134 4.40284H6.52645C6.53394 4.40284 6.54124 4.4052 6.54731 4.40958C6.55339 4.41396 6.55793 4.42013 6.5603 4.42724C6.56267 4.43434 6.56274 4.44201 6.56051 4.44916C6.55827 4.45631 6.55385 4.46259 6.54786 4.46708L6.33476 4.62512L6.4153 4.87798C6.41763 4.88516 6.41762 4.89288 6.41527 4.90006C6.41293 4.90723 6.40837 4.91347 6.40225 4.91789C6.39613 4.9223 6.38878 4.92468 6.38123 4.92465C6.37368 4.92463 6.36633 4.92219 6.36024 4.91773L6.1441 4.76378L5.92794 4.91773C5.92185 4.92219 5.91451 4.92463 5.90696 4.92465C5.89942 4.92468 5.89205 4.9223 5.88593 4.91789C5.87981 4.91347 5.87525 4.90723 5.87291 4.90006C5.87056 4.89288 5.87055 4.88516 5.87288 4.87798L5.95342 4.62512L5.74032 4.46708C5.73433 4.46259 5.72991 4.45631 5.72767 4.44916C5.72544 4.44201 5.72552 4.43434 5.72789 4.42724C5.73026 4.42013 5.73479 4.41396 5.74087 4.40958C5.74694 4.4052 5.75426 4.40284 5.76175 4.40284H6.02684L6.11045 4.15099C6.11291 4.14403 6.11746 4.13801 6.12348 4.13375C6.12951 4.12949 6.13672 4.1272 6.1441 4.1272C6.15148 4.1272 6.15867 4.12949 6.1647 4.13375C6.17072 4.13801 6.17527 4.14403 6.17773 4.15099Z" fill="#F5F5F5"/>
<path d="M6.17773 5.46832L6.26134 5.72016H6.52645C6.53394 5.72016 6.54124 5.72252 6.54731 5.7269C6.55339 5.73128 6.55793 5.73746 6.5603 5.74457C6.56267 5.75168 6.56274 5.75934 6.56051 5.76649C6.55827 5.77364 6.55385 5.7799 6.54786 5.7844L6.33476 5.94244L6.4153 6.1953C6.41763 6.20248 6.41762 6.21022 6.41527 6.21739C6.41293 6.22456 6.40837 6.2308 6.40225 6.23522C6.39613 6.23964 6.38878 6.242 6.38123 6.24197C6.37368 6.24194 6.36633 6.23953 6.36024 6.23506L6.1441 6.0811L5.92794 6.23506C5.92185 6.23953 5.91451 6.24194 5.90696 6.24197C5.89942 6.242 5.89205 6.23964 5.88593 6.23522C5.87981 6.2308 5.87525 6.22456 5.87291 6.21739C5.87056 6.21022 5.87055 6.20248 5.87288 6.1953L5.95342 5.94244L5.74032 5.7844C5.73433 5.7799 5.72991 5.77364 5.72767 5.76649C5.72544 5.75934 5.72552 5.75168 5.72789 5.74457C5.73026 5.73746 5.73479 5.73128 5.74087 5.7269C5.74694 5.72252 5.75426 5.72016 5.76175 5.72016H6.02684L6.11045 5.46832C6.11291 5.46137 6.11746 5.45533 6.12348 5.45107C6.12951 5.44681 6.13672 5.44452 6.1441 5.44452C6.15148 5.44452 6.15867 5.44681 6.1647 5.45107C6.17072 5.45533 6.17527 5.46137 6.17773 5.46832Z" fill="#F5F5F5"/>
<path d="M7.20046 0.871134L7.28406 1.12298H7.54916C7.55665 1.12298 7.56394 1.12533 7.57002 1.12971C7.57609 1.13409 7.58064 1.14027 7.58301 1.14738C7.58538 1.15449 7.58546 1.16216 7.58323 1.16931C7.58099 1.17646 7.57657 1.18272 7.57058 1.18722L7.35747 1.34525L7.43803 1.59812C7.44035 1.6053 7.44034 1.61303 7.43799 1.6202C7.43565 1.62737 7.43109 1.63362 7.42497 1.63804C7.41885 1.64246 7.41148 1.64482 7.40394 1.64479C7.39639 1.64476 7.38905 1.64235 7.38297 1.63788L7.1668 1.48392L6.95066 1.63788C6.94457 1.64235 6.93722 1.64476 6.92967 1.64479C6.92212 1.64482 6.91477 1.64246 6.90865 1.63804C6.90253 1.63362 6.89798 1.62737 6.89563 1.6202C6.89328 1.61303 6.89327 1.6053 6.8956 1.59812L6.97614 1.34525L6.76305 1.18722C6.75705 1.18272 6.75263 1.17646 6.7504 1.16931C6.74816 1.16216 6.74823 1.15449 6.7506 1.14738C6.75297 1.14027 6.75751 1.13409 6.76359 1.12971C6.76967 1.12533 6.77696 1.12298 6.78445 1.12298H7.04956L7.13317 0.871134C7.13563 0.864175 7.14018 0.858157 7.14621 0.853896C7.15223 0.849634 7.15942 0.847346 7.1668 0.847346C7.17418 0.847346 7.18139 0.849634 7.18742 0.853896C7.19344 0.858157 7.198 0.864175 7.20046 0.871134Z" fill="#F5F5F5"/>
<path d="M7.20046 2.18747L7.28406 2.43931H7.54916C7.55665 2.43931 7.56394 2.44167 7.57002 2.44605C7.57609 2.45042 7.58064 2.45661 7.58301 2.46372C7.58538 2.47082 7.58546 2.47849 7.58323 2.48564C7.58099 2.49279 7.57657 2.49905 7.57058 2.50355L7.35747 2.66158L7.43803 2.91445C7.44035 2.92163 7.44034 2.92935 7.43799 2.93652C7.43565 2.9437 7.43109 2.94995 7.42497 2.95437C7.41885 2.95879 7.41148 2.96115 7.40394 2.96112C7.39639 2.96109 7.38905 2.95868 7.38297 2.95421L7.1668 2.80025L6.95066 2.95421C6.94457 2.95868 6.93722 2.96109 6.92967 2.96112C6.92212 2.96115 6.91477 2.95879 6.90865 2.95437C6.90253 2.94995 6.89798 2.9437 6.89563 2.93652C6.89328 2.92935 6.89327 2.92163 6.8956 2.91445L6.97614 2.66158L6.76305 2.50355C6.75705 2.49905 6.75263 2.49279 6.7504 2.48564C6.74816 2.47849 6.74823 2.47082 6.7506 2.46372C6.75297 2.45661 6.75751 2.45042 6.76359 2.44605C6.76967 2.44167 6.77696 2.43931 6.78445 2.43931H7.04956L7.13317 2.18747C7.13563 2.18051 7.14018 2.17448 7.14621 2.17022C7.15223 2.16596 7.15942 2.16367 7.1668 2.16367C7.17418 2.16367 7.18139 2.16596 7.18742 2.17022C7.19344 2.17448 7.198 2.18051 7.20046 2.18747Z" fill="#F5F5F5"/>
<path d="M7.20046 3.5038L7.28406 3.75563H7.54916C7.55665 3.75563 7.56394 3.75799 7.57002 3.76237C7.57609 3.76675 7.58064 3.77294 7.58301 3.78004C7.58538 3.78715 7.58546 3.79481 7.58323 3.80196C7.58099 3.80911 7.57657 3.81538 7.57058 3.81987L7.35747 3.97791L7.43803 4.23077C7.44035 4.23795 7.44034 4.24567 7.43799 4.25285C7.43565 4.26002 7.43109 4.26627 7.42497 4.27069C7.41885 4.27511 7.41148 4.27747 7.40394 4.27744C7.39639 4.27742 7.38905 4.275 7.38297 4.27054L7.1668 4.11658L6.95066 4.27054C6.94457 4.275 6.93722 4.27742 6.92967 4.27744C6.92212 4.27747 6.91477 4.27511 6.90865 4.27069C6.90253 4.26627 6.89798 4.26002 6.89563 4.25285C6.89328 4.24567 6.89327 4.23795 6.8956 4.23077L6.97614 3.97791L6.76305 3.81987C6.75705 3.81538 6.75263 3.80911 6.7504 3.80196C6.74816 3.79481 6.74823 3.78715 6.7506 3.78004C6.75297 3.77294 6.75751 3.76675 6.76359 3.76237C6.76967 3.75799 6.77696 3.75563 6.78445 3.75563H7.04956L7.13317 3.5038C7.13563 3.49684 7.14018 3.4908 7.14621 3.48654C7.15223 3.48228 7.15942 3.47999 7.1668 3.47999C7.17418 3.47999 7.18139 3.48228 7.18742 3.48654C7.19344 3.4908 7.198 3.49684 7.20046 3.5038Z" fill="#F5F5F5"/>
<path d="M7.20046 4.82309L7.28406 5.07494H7.54916C7.55665 5.07494 7.56394 5.0773 7.57002 5.08168C7.57609 5.08606 7.58064 5.09223 7.58301 5.09934C7.58538 5.10644 7.58546 5.11411 7.58323 5.12126C7.58099 5.12841 7.57657 5.13469 7.57058 5.13918L7.35747 5.29722L7.43803 5.55008C7.44035 5.55726 7.44034 5.56498 7.43799 5.57216C7.43565 5.57933 7.43109 5.58557 7.42497 5.58999C7.41885 5.59441 7.41148 5.59678 7.40394 5.59675C7.39639 5.59673 7.38905 5.59429 7.38297 5.58983L7.1668 5.43589L6.95066 5.58983C6.94457 5.59429 6.93722 5.59673 6.92967 5.59675C6.92212 5.59678 6.91477 5.59441 6.90865 5.58999C6.90253 5.58557 6.89798 5.57933 6.89563 5.57216C6.89328 5.56498 6.89327 5.55726 6.8956 5.55008L6.97614 5.29722L6.76305 5.13918C6.75705 5.13469 6.75263 5.12841 6.7504 5.12126C6.74816 5.11411 6.74823 5.10644 6.7506 5.09934C6.75297 5.09223 6.75751 5.08606 6.76359 5.08168C6.76967 5.0773 6.77696 5.07494 6.78445 5.07494H7.04956L7.13317 4.82309C7.13563 4.81613 7.14018 4.81011 7.14621 4.80585C7.15223 4.80159 7.15942 4.7993 7.1668 4.7993C7.17418 4.7993 7.18139 4.80159 7.18742 4.80585C7.19344 4.81011 7.198 4.81613 7.20046 4.82309Z" fill="#F5F5F5"/>
<path d="M7.20046 6.13941L7.28406 6.39127H7.54916C7.55665 6.39127 7.56394 6.39362 7.57002 6.398C7.57609 6.40238 7.58064 6.40856 7.58301 6.41566C7.58538 6.42277 7.58546 6.43045 7.58323 6.4376C7.58099 6.44475 7.57657 6.45101 7.57058 6.4555L7.35747 6.61354L7.43803 6.8664C7.44035 6.87358 7.44034 6.88131 7.43799 6.88848C7.43565 6.89565 7.43109 6.90189 7.42497 6.90631C7.41885 6.91073 7.41148 6.91311 7.40394 6.91308C7.39639 6.91305 7.38905 6.91062 7.38297 6.90615L7.1668 6.75221L6.95066 6.90615C6.94457 6.91062 6.93722 6.91305 6.92967 6.91308C6.92212 6.91311 6.91477 6.91073 6.90865 6.90631C6.90253 6.90189 6.89798 6.89565 6.89563 6.88848C6.89328 6.88131 6.89327 6.87358 6.8956 6.8664L6.97614 6.61354L6.76305 6.4555C6.75705 6.45101 6.75263 6.44475 6.7504 6.4376C6.74816 6.43045 6.74823 6.42277 6.7506 6.41566C6.75297 6.40856 6.75751 6.40238 6.76359 6.398C6.76967 6.39362 6.77696 6.39127 6.78445 6.39127H7.04956L7.13317 6.13941C7.13563 6.13246 7.14018 6.12644 7.14621 6.12218C7.15223 6.11791 7.15942 6.11563 7.1668 6.11563C7.17418 6.11563 7.18139 6.11791 7.18742 6.12218C7.19344 6.12644 7.198 6.13246 7.20046 6.13941Z" fill="#F5F5F5"/>
<path d="M8.22205 1.51636L8.30566 1.76819H8.57075C8.57824 1.76819 8.58554 1.77055 8.59161 1.77493C8.59769 1.77931 8.60224 1.78549 8.6046 1.7926C8.60697 1.7997 8.60705 1.80738 8.60482 1.81453C8.60259 1.82168 8.59816 1.82794 8.59217 1.83243L8.37908 1.99047L8.45962 2.24333C8.46194 2.25051 8.46193 2.25825 8.45959 2.26542C8.45724 2.27259 8.45268 2.27884 8.44657 2.28326C8.44045 2.28767 8.43308 2.29003 8.42553 2.29001C8.41799 2.28998 8.41065 2.28756 8.40456 2.2831L8.1884 2.12914L7.97225 2.2831C7.96617 2.28756 7.95881 2.28998 7.95127 2.29001C7.94372 2.29003 7.93636 2.28767 7.93025 2.28326C7.92413 2.27884 7.91957 2.27259 7.91722 2.26542C7.91488 2.25825 7.91487 2.25051 7.91719 2.24333L7.99774 1.99047L7.78464 1.83243C7.77865 1.82794 7.77422 1.82168 7.77199 1.81453C7.76976 1.80738 7.76983 1.7997 7.77219 1.7926C7.77456 1.78549 7.77911 1.77931 7.78518 1.77493C7.79126 1.77055 7.79856 1.76819 7.80605 1.76819H8.07115L8.15476 1.51636C8.15722 1.5094 8.16177 1.50337 8.1678 1.49911C8.17383 1.49485 8.18102 1.49256 8.1884 1.49256C8.19578 1.49256 8.20299 1.49485 8.20901 1.49911C8.21504 1.50337 8.21959 1.5094 8.22205 1.51636Z" fill="#F5F5F5"/>
<path d="M8.22205 2.83468L8.30566 3.08652H8.57075C8.57824 3.08652 8.58554 3.08887 8.59161 3.09325C8.59769 3.09763 8.60224 3.10382 8.6046 3.11093C8.60697 3.11803 8.60705 3.1257 8.60482 3.13285C8.60259 3.14 8.59816 3.14626 8.59217 3.15076L8.37908 3.30879L8.45962 3.56166C8.46194 3.56884 8.46193 3.57658 8.45959 3.58375C8.45724 3.59092 8.45268 3.59716 8.44657 3.60158C8.44045 3.606 8.43308 3.60836 8.42553 3.60833C8.41799 3.6083 8.41065 3.60589 8.40456 3.60142L8.1884 3.44746L7.97225 3.60142C7.96617 3.60589 7.95881 3.6083 7.95127 3.60833C7.94372 3.60836 7.93636 3.606 7.93025 3.60158C7.92413 3.59716 7.91957 3.59092 7.91722 3.58375C7.91488 3.57658 7.91487 3.56884 7.91719 3.56166L7.99774 3.30879L7.78464 3.15076C7.77865 3.14626 7.77422 3.14 7.77199 3.13285C7.76976 3.1257 7.76983 3.11803 7.77219 3.11093C7.77456 3.10382 7.77911 3.09763 7.78518 3.09325C7.79126 3.08887 7.79856 3.08652 7.80605 3.08652H8.07115L8.15476 2.83468C8.15722 2.82772 8.16177 2.82169 8.1678 2.81743C8.17383 2.81317 8.18102 2.81088 8.1884 2.81088C8.19578 2.81088 8.20299 2.81317 8.20901 2.81743C8.21504 2.82169 8.21959 2.82772 8.22205 2.83468Z" fill="#F5F5F5"/>
<path d="M8.22205 4.15099L8.30566 4.40284H8.57075C8.57824 4.40284 8.58554 4.4052 8.59161 4.40958C8.59769 4.41396 8.60224 4.42013 8.6046 4.42724C8.60697 4.43434 8.60705 4.44201 8.60482 4.44916C8.60259 4.45631 8.59816 4.46259 8.59217 4.46708L8.37908 4.62512L8.45962 4.87798C8.46194 4.88516 8.46193 4.89288 8.45959 4.90006C8.45724 4.90723 8.45268 4.91347 8.44657 4.91789C8.44045 4.9223 8.43308 4.92468 8.42553 4.92465C8.41799 4.92463 8.41065 4.92219 8.40456 4.91773L8.1884 4.76378L7.97225 4.91773C7.96617 4.92219 7.95881 4.92463 7.95127 4.92465C7.94372 4.92468 7.93636 4.9223 7.93025 4.91789C7.92413 4.91347 7.91957 4.90723 7.91722 4.90006C7.91488 4.89288 7.91487 4.88516 7.91719 4.87798L7.99774 4.62512L7.78464 4.46708C7.77865 4.46259 7.77422 4.45631 7.77199 4.44916C7.76976 4.44201 7.76983 4.43434 7.77219 4.42724C7.77456 4.42013 7.77911 4.41396 7.78518 4.40958C7.79126 4.4052 7.79856 4.40284 7.80605 4.40284H8.07115L8.15476 4.15099C8.15722 4.14403 8.16177 4.13801 8.1678 4.13375C8.17383 4.12949 8.18102 4.1272 8.1884 4.1272C8.19578 4.1272 8.20299 4.12949 8.20901 4.13375C8.21504 4.13801 8.21959 4.14403 8.22205 4.15099Z" fill="#F5F5F5"/>
<path d="M8.22205 5.46832L8.30566 5.72016H8.57075C8.57824 5.72016 8.58554 5.72252 8.59161 5.7269C8.59769 5.73128 8.60224 5.73746 8.6046 5.74457C8.60697 5.75168 8.60705 5.75934 8.60482 5.76649C8.60259 5.77364 8.59816 5.7799 8.59217 5.7844L8.37908 5.94244L8.45962 6.1953C8.46194 6.20248 8.46193 6.21022 8.45959 6.21739C8.45724 6.22456 8.45268 6.2308 8.44657 6.23522C8.44045 6.23964 8.43308 6.242 8.42553 6.24197C8.41799 6.24194 8.41065 6.23953 8.40456 6.23506L8.1884 6.0811L7.97225 6.23506C7.96617 6.23953 7.95881 6.24194 7.95127 6.24197C7.94372 6.242 7.93636 6.23964 7.93025 6.23522C7.92413 6.2308 7.91957 6.22456 7.91722 6.21739C7.91488 6.21022 7.91487 6.20248 7.91719 6.1953L7.99774 5.94244L7.78464 5.7844C7.77865 5.7799 7.77422 5.77364 7.77199 5.76649C7.76976 5.75934 7.76983 5.75168 7.77219 5.74457C7.77456 5.73746 7.77911 5.73128 7.78518 5.7269C7.79126 5.72252 7.79856 5.72016 7.80605 5.72016H8.07115L8.15476 5.46832C8.15722 5.46137 8.16177 5.45533 8.1678 5.45107C8.17383 5.44681 8.18102 5.44452 8.1884 5.44452C8.19578 5.44452 8.20299 5.44681 8.20901 5.45107C8.21504 5.45533 8.21959 5.46137 8.22205 5.46832Z" fill="#F5F5F5"/>
<path d="M9.24477 0.871134L9.32838 1.12298H9.59347C9.60096 1.12298 9.60826 1.12533 9.61434 1.12971C9.62041 1.13409 9.62496 1.14027 9.62733 1.14738C9.62969 1.15449 9.62976 1.16216 9.62753 1.16931C9.6253 1.17646 9.62087 1.18272 9.61488 1.18722L9.40178 1.34525L9.48233 1.59812C9.48465 1.6053 9.48464 1.61303 9.4823 1.6202C9.47995 1.62737 9.47539 1.63362 9.46927 1.63804C9.46316 1.64246 9.4558 1.64482 9.44825 1.64479C9.44071 1.64476 9.43337 1.64235 9.42728 1.63788L9.21112 1.48392L8.99496 1.63788C8.98887 1.64235 8.98153 1.64476 8.97399 1.64479C8.96644 1.64482 8.95909 1.64246 8.95297 1.63804C8.94685 1.63362 8.94229 1.62737 8.93995 1.6202C8.9376 1.61303 8.93758 1.6053 8.9399 1.59812L9.02046 1.34525L8.80736 1.18722C8.80137 1.18272 8.79693 1.17646 8.7947 1.16931C8.79247 1.16216 8.79255 1.15449 8.79492 1.14738C8.79728 1.14027 8.80183 1.13409 8.80791 1.12971C8.81398 1.12533 8.82128 1.12298 8.82877 1.12298H9.09386L9.17747 0.871134C9.17993 0.864175 9.18448 0.858157 9.19051 0.853896C9.19653 0.849634 9.20374 0.847346 9.21112 0.847346C9.2185 0.847346 9.22569 0.849634 9.23172 0.853896C9.23775 0.858157 9.24231 0.864175 9.24477 0.871134Z" fill="#F5F5F5"/>
<path d="M9.24477 2.18747L9.32838 2.43931H9.59347C9.60096 2.43931 9.60826 2.44167 9.61434 2.44605C9.62041 2.45042 9.62496 2.45661 9.62733 2.46372C9.62969 2.47082 9.62976 2.47849 9.62753 2.48564C9.6253 2.49279 9.62087 2.49905 9.61488 2.50355L9.40178 2.66158L9.48233 2.91445C9.48465 2.92163 9.48464 2.92935 9.4823 2.93652C9.47995 2.9437 9.47539 2.94995 9.46927 2.95437C9.46316 2.95879 9.4558 2.96115 9.44825 2.96112C9.44071 2.96109 9.43337 2.95868 9.42728 2.95421L9.21112 2.80025L8.99496 2.95421C8.98887 2.95868 8.98153 2.96109 8.97399 2.96112C8.96644 2.96115 8.95909 2.95879 8.95297 2.95437C8.94685 2.94995 8.94229 2.9437 8.93995 2.93652C8.9376 2.92935 8.93758 2.92163 8.9399 2.91445L9.02046 2.66158L8.80736 2.50355C8.80137 2.49905 8.79693 2.49279 8.7947 2.48564C8.79247 2.47849 8.79255 2.47082 8.79492 2.46372C8.79728 2.45661 8.80183 2.45042 8.80791 2.44605C8.81398 2.44167 8.82128 2.43931 8.82877 2.43931H9.09386L9.17747 2.18747C9.17993 2.18051 9.18448 2.17448 9.19051 2.17022C9.19653 2.16596 9.20374 2.16367 9.21112 2.16367C9.2185 2.16367 9.22569 2.16596 9.23172 2.17022C9.23775 2.17448 9.24231 2.18051 9.24477 2.18747Z" fill="#F5F5F5"/>
<path d="M9.24477 3.5038L9.32838 3.75563H9.59347C9.60096 3.75563 9.60826 3.75799 9.61434 3.76237C9.62041 3.76675 9.62496 3.77294 9.62733 3.78004C9.62969 3.78715 9.62976 3.79481 9.62753 3.80196C9.6253 3.80911 9.62087 3.81538 9.61488 3.81987L9.40178 3.97791L9.48233 4.23077C9.48465 4.23795 9.48464 4.24567 9.4823 4.25285C9.47995 4.26002 9.47539 4.26627 9.46927 4.27069C9.46316 4.27511 9.4558 4.27747 9.44825 4.27744C9.44071 4.27742 9.43337 4.275 9.42728 4.27054L9.21112 4.11658L8.99496 4.27054C8.98887 4.275 8.98153 4.27742 8.97399 4.27744C8.96644 4.27747 8.95909 4.27511 8.95297 4.27069C8.94685 4.26627 8.94229 4.26002 8.93995 4.25285C8.9376 4.24567 8.93758 4.23795 8.9399 4.23077L9.02046 3.97791L8.80736 3.81987C8.80137 3.81538 8.79693 3.80911 8.7947 3.80196C8.79247 3.79481 8.79255 3.78715 8.79492 3.78004C8.79728 3.77294 8.80183 3.76675 8.80791 3.76237C8.81398 3.75799 8.82128 3.75563 8.82877 3.75563H9.09386L9.17747 3.5038C9.17993 3.49684 9.18448 3.4908 9.19051 3.48654C9.19653 3.48228 9.20374 3.47999 9.21112 3.47999C9.2185 3.47999 9.22569 3.48228 9.23172 3.48654C9.23775 3.4908 9.24231 3.49684 9.24477 3.5038Z" fill="#F5F5F5"/>
<path d="M9.24477 4.82309L9.32838 5.07494H9.59347C9.60096 5.07494 9.60826 5.0773 9.61434 5.08168C9.62041 5.08606 9.62496 5.09223 9.62733 5.09934C9.62969 5.10644 9.62976 5.11411 9.62753 5.12126C9.6253 5.12841 9.62087 5.13469 9.61488 5.13918L9.40178 5.29722L9.48233 5.55008C9.48465 5.55726 9.48464 5.56498 9.4823 5.57216C9.47995 5.57933 9.47539 5.58557 9.46927 5.58999C9.46316 5.59441 9.4558 5.59678 9.44825 5.59675C9.44071 5.59673 9.43337 5.59429 9.42728 5.58983L9.21112 5.43589L8.99496 5.58983C8.98887 5.59429 8.98153 5.59673 8.97399 5.59675C8.96644 5.59678 8.95909 5.59441 8.95297 5.58999C8.94685 5.58557 8.94229 5.57933 8.93995 5.57216C8.9376 5.56498 8.93758 5.55726 8.9399 5.55008L9.02046 5.29722L8.80736 5.13918C8.80137 5.13469 8.79693 5.12841 8.7947 5.12126C8.79247 5.11411 8.79255 5.10644 8.79492 5.09934C8.79728 5.09223 8.80183 5.08606 8.80791 5.08168C8.81398 5.0773 8.82128 5.07494 8.82877 5.07494H9.09386L9.17747 4.82309C9.17993 4.81613 9.18448 4.81011 9.19051 4.80585C9.19653 4.80159 9.20374 4.7993 9.21112 4.7993C9.2185 4.7993 9.22569 4.80159 9.23172 4.80585C9.23775 4.81011 9.24231 4.81613 9.24477 4.82309Z" fill="#F5F5F5"/>
<path d="M9.24477 6.13941L9.32838 6.39127H9.59347C9.60096 6.39127 9.60826 6.39362 9.61434 6.398C9.62041 6.40238 9.62496 6.40856 9.62733 6.41566C9.62969 6.42277 9.62976 6.43045 9.62753 6.4376C9.6253 6.44475 9.62087 6.45101 9.61488 6.4555L9.40178 6.61354L9.48233 6.8664C9.48465 6.87358 9.48464 6.88131 9.4823 6.88848C9.47995 6.89565 9.47539 6.90189 9.46927 6.90631C9.46316 6.91073 9.4558 6.91311 9.44825 6.91308C9.44071 6.91305 9.43337 6.91062 9.42728 6.90615L9.21112 6.75221L8.99496 6.90615C8.98887 6.91062 8.98153 6.91305 8.97399 6.91308C8.96644 6.91311 8.95909 6.91073 8.95297 6.90631C8.94685 6.90189 8.94229 6.89565 8.93995 6.88848C8.9376 6.88131 8.93758 6.87358 8.9399 6.8664L9.02046 6.61354L8.80736 6.4555C8.80137 6.45101 8.79693 6.44475 8.7947 6.4376C8.79247 6.43045 8.79255 6.42277 8.79492 6.41566C8.79728 6.40856 8.80183 6.40238 8.80791 6.398C8.81398 6.39362 8.82128 6.39127 8.82877 6.39127H9.09386L9.17747 6.13941C9.17993 6.13246 9.18448 6.12644 9.19051 6.12218C9.19653 6.11791 9.20374 6.11563 9.21112 6.11563C9.2185 6.11563 9.22569 6.11791 9.23172 6.12218C9.23775 6.12644 9.24231 6.13246 9.24477 6.13941Z" fill="#F5F5F5"/>
</g>
<defs>
<clipPath id="clip0_612_745">
<rect width="21.577" height="14.137" fill="white" transform="scale(1.0196)"/>
</clipPath>
</defs>
</svg>
