<svg width="58" height="52" viewBox="0 0 58 52" fill="none" xmlns="http://www.w3.org/2000/svg">
<path d="M51.6478 40.1684H5.48029V4.58343C5.48029 3.1569 6.44437 2 7.63314 2H49.4949C50.6837 2 51.6478 3.15557 51.6478 4.58343V40.1684Z" stroke="#3D3E40" stroke-width="4" stroke-miterlimit="10" stroke-linecap="round" stroke-linejoin="round"/>
<path d="M53.4228 50.0001H3.70336C3.4044 50.0001 3.11071 49.9056 2.8518 49.7263C2.59289 49.5469 2.37787 49.289 2.22835 48.9783C2.07883 48.6676 2.00008 48.3152 2 47.9565C1.99992 47.5977 2.07852 47.2453 2.2279 46.9345L5.47877 40.1685H51.6462L54.8971 46.9345C55.0465 47.2453 55.1251 47.5977 55.125 47.9565C55.1249 48.3152 55.0462 48.6676 54.8967 48.9783C54.7471 49.289 54.5321 49.5469 54.2732 49.7263C54.0143 49.9056 53.7217 50.0001 53.4228 50.0001Z" stroke="#3D3E40" stroke-width="4" stroke-miterlimit="10" stroke-linecap="round" stroke-linejoin="round"/>
<path d="M17.8457 30.6257V40.1678" stroke="#3D3E40" stroke-width="4" stroke-miterlimit="10" stroke-linecap="round" stroke-linejoin="round"/>
<path d="M24.9913 25.1191V40.1681" stroke="#3D3E40" stroke-width="4" stroke-miterlimit="10" stroke-linecap="round" stroke-linejoin="round"/>
<path d="M32.1366 21.0854V40.1683" stroke="#3D3E40" stroke-width="4" stroke-miterlimit="10" stroke-linecap="round" stroke-linejoin="round"/>
<path d="M39.2814 15.3872V40.1682" stroke="#3D3E40" stroke-width="4" stroke-miterlimit="10" stroke-linecap="round" stroke-linejoin="round"/>
<path d="M29.3019 45.0854H27.8254" stroke="#3D3E40" stroke-width="4" stroke-miterlimit="10" stroke-linecap="round" stroke-linejoin="round"/>
<path d="M51.6478 40.1684H5.48029V4.58343C5.48029 3.1569 6.44437 2 7.63314 2H49.4949C50.6837 2 51.6478 3.15557 51.6478 4.58343V40.1684Z" stroke="#3D3E40" stroke-width="4" stroke-miterlimit="10" stroke-linecap="round" stroke-linejoin="round"/>
<path d="M53.4228 50.0001H3.70336C3.4044 50.0001 3.11071 49.9056 2.8518 49.7263C2.59289 49.5469 2.37787 49.289 2.22835 48.9783C2.07883 48.6676 2.00008 48.3152 2 47.9565C1.99992 47.5977 2.07852 47.2453 2.2279 46.9345L5.47877 40.1685H51.6462L54.8971 46.9345C55.0465 47.2453 55.1251 47.5977 55.125 47.9565C55.1249 48.3152 55.0462 48.6676 54.8967 48.9783C54.7471 49.289 54.5321 49.5469 54.2732 49.7263C54.0143 49.9056 53.7217 50.0001 53.4228 50.0001Z" stroke="#3D3E40" stroke-width="4" stroke-miterlimit="10" stroke-linecap="round" stroke-linejoin="round"/>
<path d="M17.8461 30.626V40.1681" stroke="#3D3E40" stroke-width="4" stroke-miterlimit="10" stroke-linecap="round" stroke-linejoin="round"/>
<path d="M24.9911 25.1194V40.1684" stroke="#3D3E40" stroke-width="4" stroke-miterlimit="10" stroke-linecap="round" stroke-linejoin="round"/>
<path d="M32.137 21.0857V40.1685" stroke="#3D3E40" stroke-width="4" stroke-miterlimit="10" stroke-linecap="round" stroke-linejoin="round"/>
<path d="M39.2819 15.3875V40.1685" stroke="#3D3E40" stroke-width="4" stroke-miterlimit="10" stroke-linecap="round" stroke-linejoin="round"/>
<path d="M29.3019 45.0842H27.8254" stroke="#3D3E40" stroke-width="4" stroke-miterlimit="10" stroke-linecap="round" stroke-linejoin="round"/>
</svg>
