<svg width="42" height="50" viewBox="0 0 42 50" fill="none" xmlns="http://www.w3.org/2000/svg">
<path d="M38.7658 17.4645H2.95302C2.94571 17.6678 2.9323 17.8594 2.9323 18.051C2.9323 26.083 2.92986 34.1136 2.9323 42.1456C2.9323 44.8263 4.32533 46.4994 6.55563 46.5009C11.1735 46.5053 15.7901 46.5009 20.4079 46.5009C20.559 46.5009 20.7114 46.4936 20.8625 46.5053C21.7168 46.5725 22.3274 47.3433 22.3006 48.3129C22.2738 49.2577 21.6498 49.9816 20.8064 49.9831C15.9168 49.9889 11.026 50.0255 6.13638 49.9685C2.70318 49.929 0.0426561 46.5799 0.0304686 42.384C0.0146249 37.2243 0.0304686 32.0631 0.0255937 26.902C0.0207187 23.1624 0.00121875 19.4199 0 15.6759C0 13.0229 0.0158437 10.3714 0.0255937 7.71845C0.0414373 3.27247 2.74583 0.0111056 6.4496 0.00671808C14.0339 -0.00351939 21.6193 0.00379309 29.2036 0.00379309C31.2328 0.00379309 33.2608 -0.00644438 35.29 0.00671808C38.5379 0.0257305 41.051 2.57925 41.6019 6.41391C41.6555 6.78684 41.6677 7.17294 41.6677 7.55319C41.6713 14.0935 41.6726 20.6337 41.6689 27.1755C41.6689 28.3279 41.0534 29.0826 40.1723 29.0533C39.3496 29.0255 38.7707 28.2621 38.7671 27.1594C38.7598 24.9247 38.7646 22.69 38.7646 20.4539C38.7646 19.4769 38.7646 18.4985 38.7646 17.4645H38.7658ZM38.7464 13.9238C38.7537 13.7264 38.7658 13.5655 38.7658 13.4061C38.7671 11.5356 38.7719 9.66503 38.7658 7.7945C38.7573 5.18249 37.3619 3.49477 35.1913 3.49331C25.6278 3.48892 16.0643 3.48892 6.50201 3.49331C4.33508 3.49331 2.94083 5.18687 2.93352 7.80035C2.92864 9.65333 2.93352 11.5048 2.93352 13.3578C2.93352 13.5348 2.93352 13.7118 2.93352 13.9238H38.7488H38.7464Z" fill="#3D3E40"/>
<path d="M35.9604 41.7432C37.0317 43.5786 38.0676 45.3205 39.0658 47.0945C39.2657 47.4484 39.3997 47.9222 39.4119 48.3464C39.4338 49.0922 38.9841 49.7123 38.4089 49.92C37.8019 50.1394 37.1645 49.8791 36.7721 49.2107C35.8459 47.64 34.9318 46.0576 34.0129 44.481C33.8837 44.2587 33.7496 44.0393 33.5851 43.7629C33.4279 43.9954 33.2853 44.1973 33.1512 44.4064C32.4967 45.4287 31.8459 46.4539 31.189 47.4747C30.4627 48.6038 29.5084 49.0893 28.3518 48.7325C27.2171 48.3829 26.5797 47.4352 26.3774 46.0444C25.5609 40.4328 24.7346 34.8227 23.9119 29.2111C23.7181 27.8875 24.0521 26.7863 24.9515 26.0024C25.8692 25.2024 26.8747 25.1702 27.8558 25.843C30.9002 27.9329 33.9349 30.0447 36.9744 32.1478C38.0481 32.8907 39.1206 33.6381 40.198 34.3752C41.2656 35.1064 41.8043 36.1945 41.6434 37.6672C41.4911 39.0698 40.7623 39.9268 39.652 40.3436C38.4442 40.797 37.2377 41.2562 35.9616 41.7388L35.9604 41.7432ZM29.1574 44.8934C29.3183 44.655 29.4145 44.5205 29.5047 44.3786C30.4358 42.9234 31.3706 41.4741 32.2908 40.0102C32.5942 39.529 32.9526 39.1941 33.4474 39.0288C34.2322 38.7656 35.0049 38.4497 35.7825 38.1528C36.6222 37.8325 37.4607 37.5093 38.3857 37.1539C34.5125 34.4717 30.7259 31.848 26.8503 29.1658C27.6254 34.4512 28.381 39.6065 29.1562 44.892L29.1574 44.8934Z" fill="#3D3E40"/>
<path d="M14.056 8.70172C14.0608 9.65965 13.4283 10.4435 12.6361 10.464C11.8476 10.483 11.1492 9.65088 11.1578 8.70025C11.1663 7.74963 11.8147 6.98329 12.613 6.98329C13.4173 6.98329 14.0523 7.73793 14.0572 8.70172H14.056Z" fill="#3D3E40"/>
<path d="M16.0159 8.71197C16.0159 7.73941 16.6399 6.98769 17.448 6.98184C18.245 6.97745 18.8995 7.73941 18.9141 8.68857C18.93 9.64065 18.2389 10.4757 17.4455 10.464C16.6582 10.4523 16.0159 9.66552 16.0159 8.71197Z" fill="#3D3E40"/>
<path d="M9.21989 8.72668C9.21501 9.66853 8.55445 10.4597 7.7708 10.4627C6.97252 10.4656 6.30099 9.64074 6.31684 8.67696C6.33268 7.72341 6.98349 6.97462 7.78786 6.98485C8.58248 6.99509 9.22598 7.77753 9.21989 8.72668Z" fill="#3D3E40"/>
</svg>
