<svg width="73" height="73" viewBox="0 0 73 73" fill="none" xmlns="http://www.w3.org/2000/svg">
<path d="M45.6247 36.516C45.626 39.1481 45.1511 41.7589 44.2232 44.222C41.7591 45.1499 39.1478 45.6254 36.5148 45.6259H36.484C33.7728 45.6224 31.175 45.1268 28.778 44.2232C27.8494 41.7597 27.3741 39.1486 27.375 36.516V36.484C27.3737 33.8523 27.8481 31.2421 28.7751 28.7791C31.239 27.8495 33.8509 27.3738 36.4843 27.375H36.5151C39.1482 27.3737 41.7598 27.8493 44.2235 28.7788C45.1515 31.2416 45.6264 33.8519 45.625 36.4837V36.5157L45.6247 36.516ZM72.493 30.4168H51.1873L66.2518 15.3511C65.0694 13.6901 63.7504 12.1307 62.3086 10.6891V10.6879C60.8668 9.24787 59.3078 7.93009 57.6478 6.74822L42.5821 21.8139V0.508148C40.5784 0.171073 38.5501 0.00110552 36.5182 0L36.4806 0C34.4138 0.00114063 32.3895 0.176797 30.4168 0.508148V21.8139L15.3511 6.74822C13.6908 7.92978 12.1324 9.24849 10.6925 10.6905L10.6845 10.6962C9.24521 12.136 7.92809 13.693 6.7468 15.3511L21.8136 30.4168H0.508148C0.508148 30.4168 0 34.4184 0 36.4875V36.5126C0 38.5816 0.175371 40.6094 0.508148 42.5832H21.8139L6.74708 57.6489C9.1172 60.975 12.025 63.8828 15.3511 66.2529L30.4168 51.1861V72.493C32.4183 72.8284 34.4441 72.998 36.4735 73H36.5251C38.5545 72.9982 40.5803 72.8286 42.5818 72.493V51.1861L57.6489 66.2529C59.3086 65.0706 60.8672 63.7525 62.3086 62.3121L62.3121 62.3086C63.7518 60.867 65.0696 59.3084 66.2518 57.6489L51.185 42.5832H72.493C72.8246 40.6128 72.9977 38.5911 73 36.5265V36.4735C72.9977 34.4089 72.8246 32.3872 72.493 30.4168Z" fill="#1F2278"/>
</svg>
