<svg width="24" height="18" viewBox="0 0 24 18" fill="none" xmlns="http://www.w3.org/2000/svg">
<path d="M23.9945 6.0027C24.0484 4.42669 23.7071 2.86246 23.0024 1.45527C22.5242 0.877866 21.8606 0.488209 21.1272 0.354197C18.0937 0.0762036 15.0476 -0.0377366 12.002 0.0128642C8.96757 -0.0400333 5.93246 0.0702302 2.9096 0.343186C2.31196 0.452982 1.75889 0.736095 1.31788 1.15798C0.336678 2.07187 0.227656 3.6354 0.118633 4.95668C-0.0395445 7.33232 -0.0395445 9.716 0.118633 12.0916C0.150174 12.8353 0.25981 13.5735 0.4457 14.2938C0.577153 14.8499 0.84311 15.3644 1.21976 15.7912C1.66377 16.2355 2.22972 16.5347 2.84419 16.6501C5.19461 16.9431 7.5629 17.0645 9.93062 17.0134C13.7464 17.0685 17.0934 17.0134 21.0509 16.7051C21.6804 16.5968 22.2623 16.2972 22.7189 15.8463C23.0241 15.5379 23.2521 15.1604 23.384 14.7452C23.7738 13.5369 23.9653 12.2723 23.9509 11.0016C23.9945 10.385 23.9945 6.66335 23.9945 6.0027ZM9.53814 11.6622V4.84658L15.9923 8.27091C14.1825 9.2839 11.7949 10.429 9.53814 11.6622Z" fill="#FE1F1F"/>
</svg>
