<svg width="54" height="57" viewBox="0 0 54 57" fill="none" xmlns="http://www.w3.org/2000/svg">
<g clip-path="url(#clip0_612_1187)">
<path d="M51.75 14.821C51.2645 15.0739 50.699 15.1226 50.1779 14.9562C49.6567 14.7899 49.2225 14.4221 48.9708 13.9338C47.0021 10.0209 44.0223 6.71365 40.3444 4.35965C40.1152 4.2142 39.9167 4.02475 39.7602 3.80211C39.6038 3.57948 39.4925 3.32803 39.4326 3.06211C39.3728 2.79619 39.3656 2.52101 39.4114 2.25229C39.4573 1.98357 39.5553 1.72657 39.6998 1.49595C39.8444 1.26534 40.0327 1.06563 40.254 0.908239C40.4753 0.750842 40.7252 0.638838 40.9895 0.578621C41.2538 0.518404 41.5273 0.511153 41.7944 0.557282C42.0614 0.603412 42.3169 0.702018 42.5461 0.847471C46.8325 3.6088 50.313 7.46605 52.6317 12.0247C52.8831 12.5132 52.9315 13.0821 52.7661 13.6065C52.6008 14.1308 52.2353 14.5677 51.75 14.821ZM3.20647 15.0544C3.58433 15.0543 3.95488 14.9497 4.27768 14.7521C4.60048 14.5545 4.86313 14.2714 5.03694 13.9338C7.00561 10.0209 9.98544 6.71365 13.6633 4.35965C14.1263 4.0659 14.4542 3.59916 14.5751 3.06211C14.696 2.52506 14.5998 1.9617 14.3079 1.49595C14.0159 1.03021 13.552 0.700235 13.0182 0.578621C12.4845 0.457007 11.9245 0.553715 11.4616 0.847471C7.17525 3.6088 3.69472 7.46605 1.376 12.0247C1.21316 12.341 1.13397 12.6941 1.14604 13.05C1.1581 13.406 1.26103 13.7528 1.44491 14.0572C1.62879 14.3615 1.88744 14.6131 2.19595 14.7878C2.50447 14.9625 2.85247 15.0543 3.20647 15.0544ZM51.1854 42.0157C51.5508 42.6462 51.7445 43.3624 51.747 44.0922C51.7495 44.822 51.5606 45.5395 51.1996 46.1725C50.8385 46.8054 50.3179 47.3314 49.6903 47.6973C49.0627 48.0632 48.3503 48.2562 47.625 48.2567H37.1062C36.6329 50.6022 35.3681 52.711 33.5263 54.2256C31.6844 55.7403 29.3788 56.5677 27 56.5677C24.6212 56.5677 22.3155 55.7403 20.4737 54.2256C18.6319 52.711 17.3671 50.6022 16.8937 48.2567H6.37499C5.65007 48.2553 4.93834 48.0617 4.31147 47.6954C3.68461 47.3291 3.16476 46.803 2.80428 46.1702C2.44381 45.5375 2.25544 44.8203 2.25816 44.0909C2.26087 43.3615 2.45458 42.6458 2.81975 42.0157C5.14264 37.9822 6.37499 32.247 6.37499 25.4301C6.37499 19.9265 8.54797 14.6483 12.4159 10.7567C16.2838 6.86501 21.5299 4.67871 27 4.67871C32.4701 4.67871 37.7161 6.86501 41.5841 10.7567C45.452 14.6483 47.625 19.9265 47.625 25.4301C47.625 32.2444 48.8573 37.9796 51.1854 42.0157ZM32.8317 48.2567H21.1683C21.5956 49.4692 22.3857 50.5187 23.43 51.2609C24.4743 52.0031 25.7214 52.4016 27 52.4016C28.2786 52.4016 29.5257 52.0031 30.57 51.2609C31.6143 50.5187 32.4044 49.4692 32.8317 48.2567ZM47.625 44.1064C44.8819 39.3673 43.5 33.0848 43.5 25.4301C43.5 21.0273 41.7616 16.8047 38.6673 13.6914C35.5729 10.578 31.3761 8.82899 27 8.82899C22.6239 8.82899 18.4271 10.578 15.3327 13.6914C12.2384 16.8047 10.5 21.0273 10.5 25.4301C10.5 33.0874 9.11296 39.3699 6.37499 44.1064H47.625Z" fill="#1F2278"/>
</g>
<defs>
<clipPath id="clip0_612_1187">
<rect width="54" height="56.7458" fill="white"/>
</clipPath>
</defs>
</svg>
