<svg width="57" height="47" viewBox="0 0 57 47" fill="none" xmlns="http://www.w3.org/2000/svg">
<path d="M50.88 35.7247C54.6502 35.7247 56.9421 38.1406 56.9421 41.3622C56.9421 44.6697 54.6502 46.9998 50.9085 46.9998H17.4626C13.6913 46.9998 11.4005 44.6697 11.4005 41.3622C11.4005 38.1406 13.6913 35.7247 17.4626 35.7247H50.88ZM50.9961 17.8618C54.6798 17.8618 56.9136 20.2777 56.9136 23.4994C56.9136 26.8079 54.6798 29.137 50.9961 29.137H34.3744C30.6896 29.137 28.4568 26.8079 28.4568 23.4994C28.4568 20.2777 30.6896 17.8618 34.3744 17.8618H50.9961ZM50.88 0C54.6502 0 56.9421 2.41596 56.9421 5.63759C56.9421 8.94501 54.6502 11.2752 50.88 11.2752H6.06214C2.29192 11.2752 0 8.94501 0 5.63759C0 2.41596 2.29192 0 6.06214 0H50.88Z" fill="#1A90DC"/>
</svg>
