<svg width="24" height="24" viewBox="0 0 24 24" fill="none" xmlns="http://www.w3.org/2000/svg">
<path d="M12.0003 0C5.37254 0 0 5.37254 0 12.0003C0 18.6281 5.37254 24 12.0003 24C18.6281 24 24 18.6275 24 12.0003C24 5.37318 18.6275 0 12.0003 0ZM17.9893 8.91999C17.9344 8.99721 17.8623 9.0623 17.7947 9.1293C15.4929 11.4317 13.1834 13.7271 10.8951 16.0423C10.4605 16.4814 9.91039 16.4935 9.47007 16.0372C8.35396 14.8803 7.20083 13.759 6.06748 12.6187C5.62844 12.1771 5.74905 11.493 6.30168 11.2856C6.64501 11.1567 6.95387 11.2339 7.21806 11.4994C8.14401 12.4304 9.07442 13.3577 10.0036 14.2862C10.0584 14.3417 10.1172 14.394 10.2358 14.5076C10.2875 14.424 10.3207 14.3366 10.3813 14.2759C12.484 12.1688 14.5905 10.0648 16.6939 7.95767C16.8809 7.77069 17.0787 7.64115 17.3607 7.64689C17.6824 7.65391 17.9108 7.79367 18.057 8.06615C18.2152 8.36034 18.1808 8.65069 17.9893 8.91999Z" fill="white"/>
</svg>
