<svg width="34" height="40" viewBox="0 0 34 40" fill="none" xmlns="http://www.w3.org/2000/svg">
<path d="M6.38281 1.75C8.65625 1.75 11.0155 4.08333 11.0156 7.65918C11.0156 11.2353 8.65633 13.5693 6.38281 13.5693C4.10934 13.5692 1.75 11.2352 1.75 7.65918C1.75017 4.08342 4.10943 1.75011 6.38281 1.75Z" stroke="#3D3E40" stroke-width="3.5"/>
<path d="M27.1138 1.75C29.3872 1.75 31.7464 4.08333 31.7466 7.65918C31.7466 11.2353 29.3873 13.5693 27.1138 13.5693C24.8403 13.5692 22.481 11.2352 22.481 7.65918C22.4811 4.08342 24.8404 1.75011 27.1138 1.75Z" stroke="#3D3E40" stroke-width="3.5"/>
<path d="M6.38281 26.4309C8.65625 26.4309 11.0155 28.7642 11.0156 32.3401C11.0156 35.9162 8.65633 38.2502 6.38281 38.2502C4.10934 38.2501 1.75 35.9161 1.75 32.3401C1.75017 28.7643 4.10943 26.431 6.38281 26.4309Z" stroke="#3D3E40" stroke-width="3.5"/>
<path d="M27.1138 26.4309C29.3872 26.4309 31.7464 28.7642 31.7466 32.3401C31.7466 35.9162 29.3873 38.2502 27.1138 38.2502C24.8403 38.2501 22.481 35.9161 22.481 32.3401C22.4811 28.7643 24.8404 26.431 27.1138 26.4309Z" stroke="#3D3E40" stroke-width="3.5"/>
</svg>
