<svg width="22" height="15" viewBox="0 0 22 15" fill="none" xmlns="http://www.w3.org/2000/svg">
<g clip-path="url(#clip0_612_805)">
<path d="M22 4.80437H0V0.379294C0 0.278699 0.039961 0.182222 0.111092 0.111091C0.182223 0.0399601 0.278698 0 0.379292 0H21.6207C21.7213 0 21.8178 0.0399601 21.8889 0.111091C21.96 0.182222 22 0.278699 22 0.379294V4.80437Z" fill="#464655"/>
<path d="M21.6207 14.4139H0.379292C0.278698 14.4139 0.182223 14.374 0.111092 14.3029C0.039961 14.2317 0 14.1352 0 14.0346L0 9.60956H22V14.0346C22 14.1352 21.96 14.2317 21.8889 14.3029C21.8178 14.374 21.7213 14.4139 21.6207 14.4139Z" fill="#FFE15A"/>
<path d="M22 4.80428H0V9.60865H22V4.80428Z" fill="#FF4B55"/>
</g>
<defs>
<clipPath id="clip0_612_805">
<rect width="21.577" height="14.137" fill="white" transform="scale(1.0196)"/>
</clipPath>
</defs>
</svg>
