<svg width="61" height="75" viewBox="0 0 61 75" fill="none" xmlns="http://www.w3.org/2000/svg">
<path d="M39.453 16.4965C39.4529 16.9746 39.5986 17.4414 39.8707 17.8343C40.1427 18.2272 40.5281 18.5274 40.9753 18.6947L32.4271 27.2556V18.8425C32.427 18.3786 32.2896 17.9251 32.0323 17.5394C31.7749 17.1537 31.4092 16.8531 30.9813 16.6755C30.5535 16.498 30.0827 16.4515 29.6284 16.542C29.1742 16.6325 28.757 16.8559 28.4294 17.1839L12.0358 33.6064C11.8121 33.8228 11.6337 34.0817 11.5109 34.3679C11.3882 34.6542 11.3236 34.962 11.3209 35.2735C11.3182 35.585 11.3774 35.894 11.4952 36.1823C11.613 36.4706 11.7869 36.7326 12.0067 36.9528C12.2266 37.1731 12.4881 37.3473 12.7759 37.4653C13.0638 37.5833 13.3721 37.6426 13.6831 37.6399C13.9941 37.6372 14.3014 37.5725 14.5871 37.4495C14.8728 37.3266 15.1313 37.1478 15.3473 36.9238L27.7432 24.506V32.919C27.7433 33.3829 27.8807 33.8364 28.1381 34.2222C28.3954 34.6079 28.7612 34.9085 29.189 35.086C29.6169 35.2636 30.0877 35.31 30.5419 35.2195C30.9962 35.1291 31.4134 34.9057 31.7409 34.5777L44.2844 22.0121C44.4763 22.5278 44.8431 22.9594 45.3206 23.2316C45.7981 23.5038 46.3559 23.5992 46.8964 23.501C47.437 23.4029 47.9259 23.1175 48.2777 22.6948C48.6295 22.2721 48.8217 21.739 48.8208 21.1886V16.4965C48.8208 15.8742 48.5741 15.2775 48.1349 14.8375C47.6957 14.3976 47.1 14.1504 46.4788 14.1504H41.7949C41.1738 14.1504 40.5781 14.3976 40.1389 14.8375C39.6997 15.2775 39.453 15.8742 39.453 16.4965ZM16.0335 44.6494C16.6546 44.6494 17.2503 44.8966 17.6895 45.3365C18.1287 45.7765 18.3754 46.3733 18.3754 46.9955V56.3798C18.3754 57.002 18.1287 57.5987 17.6895 58.0387C17.2503 58.4787 16.6546 58.7259 16.0335 58.7259C15.4124 58.7259 14.8167 58.4787 14.3775 58.0387C13.9383 57.5987 13.6915 57.002 13.6915 56.3798V46.9955C13.6915 46.3733 13.9383 45.7765 14.3775 45.3365C14.8167 44.8966 15.4124 44.6494 16.0335 44.6494Z" fill="#1F2278"/>
<path d="M25.684 35.1418C25.0648 35.1418 24.4709 35.3903 24.033 35.8326C23.5951 36.2749 23.3491 36.8748 23.3491 37.5003V56.3682C23.3491 56.9937 23.5951 57.5936 24.033 58.0359C24.4709 58.4782 25.0648 58.7267 25.684 58.7267C26.3033 58.7267 26.8972 58.4782 27.3351 58.0359C27.7729 57.5936 28.0189 56.9937 28.0189 56.3682V37.5003C28.0189 36.8748 27.7729 36.2749 27.3351 35.8326C26.8972 35.3903 26.3033 35.1418 25.684 35.1418ZM35.0236 42.2173C35.6429 42.2173 36.2368 42.4657 36.6747 42.908C37.1126 43.3503 37.3586 43.9502 37.3586 44.5757V56.3682C37.3586 56.9937 37.1126 57.5936 36.6747 58.0359C36.2368 58.4782 35.6429 58.7267 35.0236 58.7267C34.4044 58.7267 33.8105 58.4782 33.3726 58.0359C32.9347 57.5936 32.6887 56.9937 32.6887 56.3682V44.5757C32.6887 43.9502 32.9347 43.3503 33.3726 42.908C33.8105 42.4657 34.4044 42.2173 35.0236 42.2173ZM44.3633 30.4248C43.744 30.4248 43.1501 30.6733 42.7122 31.1156C42.2744 31.5579 42.0284 32.1578 42.0284 32.7833V56.3682C42.0284 56.9937 42.2744 57.5936 42.7122 58.0359C43.1501 58.4782 43.744 58.7267 44.3633 58.7267C44.9825 58.7267 45.5764 58.4782 46.0143 58.0359C46.4522 57.5936 46.6982 56.9937 46.6982 56.3682V32.7833C46.6982 32.1578 46.4522 31.5579 46.0143 31.1156C45.5764 30.6733 44.9825 30.4248 44.3633 30.4248Z" fill="#1F2278"/>
<path fill-rule="evenodd" clip-rule="evenodd" d="M11.7017 0C8.59825 0 5.62186 1.23465 3.42736 3.43234C1.23286 5.63003 0 8.61074 0 11.7188V63.2812C0 66.3893 1.23286 69.37 3.42736 71.5677C5.62186 73.7654 8.59825 75 11.7017 75H49.1473C52.2508 75 55.2272 73.7654 57.4217 71.5677C59.6162 69.37 60.849 66.3893 60.849 63.2812V11.7188C60.849 8.61074 59.6162 5.63003 57.4217 3.43234C55.2272 1.23465 52.2508 0 49.1473 0L11.7017 0ZM4.6807 11.7188C4.6807 9.85395 5.42041 8.06552 6.73711 6.74691C8.05381 5.42829 9.83964 4.6875 11.7017 4.6875H49.1473C51.0094 4.6875 52.7952 5.42829 54.1119 6.74691C55.4286 8.06552 56.1684 9.85395 56.1684 11.7188V63.2812C56.1684 65.1461 55.4286 66.9345 54.1119 68.2531C52.7952 69.5717 51.0094 70.3125 49.1473 70.3125H11.7017C9.83964 70.3125 8.05381 69.5717 6.73711 68.2531C5.42041 66.9345 4.6807 65.1461 4.6807 63.2812V11.7188Z" fill="#1F2278"/>
</svg>
