<svg width="13" height="23" viewBox="0 0 13 23" fill="none" xmlns="http://www.w3.org/2000/svg">
<path d="M0.306601 10.7604L10.7606 0.306346C10.8578 0.209217 10.9731 0.132173 11.1 0.0796065C11.2269 0.02704 11.3629 -1.58481e-05 11.5002 -1.58601e-05C11.6376 -1.58721e-05 11.7736 0.02704 11.9005 0.0796064C12.0274 0.132173 12.1427 0.209217 12.2399 0.306346C12.337 0.403475 12.414 0.518783 12.4666 0.645688C12.5192 0.772593 12.5462 0.908608 12.5462 1.04597C12.5462 1.18333 12.5192 1.31934 12.4666 1.44625C12.414 1.57315 12.337 1.68846 12.2399 1.78559L2.52416 11.5L12.2399 21.2144C12.436 21.4106 12.5462 21.6766 12.5462 21.954C12.5462 22.2314 12.436 22.4975 12.2399 22.6936C12.0437 22.8898 11.7777 23 11.5002 23C11.2228 23 10.9568 22.8898 10.7606 22.6936L0.306601 12.2396C0.209403 12.1425 0.132295 12.0272 0.0796861 11.9003C0.0270768 11.7734 3.62112e-09 11.6374 -8.38919e-09 11.5C-2.03995e-08 11.3626 0.0270768 11.2266 0.079686 11.0997C0.132295 10.9728 0.209403 10.8575 0.306601 10.7604Z" fill="#6B6B6B"/>
</svg>
