<svg width="13" height="23" viewBox="0 0 13 23" fill="none" xmlns="http://www.w3.org/2000/svg">
<path d="M12.2396 12.2396L1.78561 22.6937C1.68848 22.7908 1.57317 22.8678 1.44626 22.9204C1.31936 22.973 1.18334 23 1.04598 23C0.908623 23 0.772607 22.973 0.645703 22.9204C0.518798 22.8678 0.40349 22.7908 0.306361 22.6937C0.209232 22.5965 0.132186 22.4812 0.0796203 22.3543C0.0270547 22.2274 0 22.0914 0 21.954C0 21.8167 0.0270547 21.6807 0.0796203 21.5538C0.132186 21.4268 0.209232 21.3115 0.306361 21.2144L10.0221 11.5L0.306361 1.78561C0.110201 1.58945 -2.06688e-09 1.3234 0 1.04598C2.06688e-09 0.768572 0.110201 0.502521 0.306361 0.306361C0.502521 0.110201 0.768572 2.06688e-09 1.04598 0C1.3234 -2.06688e-09 1.58945 0.110201 1.78561 0.306361L12.2396 10.7604C12.3368 10.8575 12.4139 10.9728 12.4665 11.0997C12.5192 11.2266 12.5462 11.3626 12.5462 11.5C12.5462 11.6374 12.5192 11.7734 12.4665 11.9003C12.4139 12.0272 12.3368 12.1425 12.2396 12.2396Z" fill="#0AA1D9"/>
</svg>
