<svg width="58" height="60" viewBox="0 0 58 60" fill="none" xmlns="http://www.w3.org/2000/svg">
<path d="M44.5331 19.7485V12.6063C46.4836 11.7059 47.7337 9.77552 47.7437 7.6489V7.48503C47.7437 4.44745 45.2507 1.98508 42.1757 1.98508H42.0096C38.9342 1.98508 36.4413 4.44745 36.4413 7.48503V7.6489C36.4511 9.77552 37.7013 11.7059 39.6517 12.6063V19.7485C36.9055 20.1639 34.3191 21.2887 32.1545 23.009L12.3237 7.75211C12.4652 7.24782 12.5389 6.7294 12.5472 6.20898C12.5522 3.70221 11.0276 1.43959 8.68482 0.476087C6.34199 -0.487285 3.64229 0.0384656 1.84491 1.808C0.0474016 3.57767 -0.493459 6.24258 0.474202 8.55988C1.442 10.8772 3.72786 12.3903 6.2656 12.3935C7.35123 12.3884 8.41648 12.1021 9.35512 11.5633L28.8826 26.5726C25.2924 31.9295 25.3886 38.9112 29.1245 44.1701L23.1853 50.0383C22.7049 49.8869 22.2049 49.8062 21.7009 49.7994C18.8565 49.8019 16.5522 52.0804 16.553 54.8899C16.5537 57.6993 18.8595 59.9765 21.7036 59.9773C24.548 59.9779 26.8548 57.7018 26.8573 54.8924C26.8505 54.3945 26.769 53.9005 26.6151 53.4265L32.4906 47.6206C37.7406 51.6127 44.951 51.9567 50.566 48.4829C56.1808 45.0089 59.0144 38.4505 57.6691 32.0428C56.3236 25.6348 51.0836 20.7308 44.5331 19.7485ZM42.0977 43.2385C39.1426 43.317 36.3772 41.8047 34.8762 39.289C33.3752 36.7734 33.3752 33.6513 34.8762 31.1356C36.3772 28.62 39.1426 27.1077 42.0977 27.1862C46.4721 27.3374 49.9397 30.8829 49.9421 35.2065C49.944 39.5296 46.4802 43.0787 42.1058 43.2343" fill="#FF7A59"/>
</svg>
