<svg width="279" height="60" viewBox="0 0 279 60" fill="none" xmlns="http://www.w3.org/2000/svg">
<path d="M29.5847 47.5271C29.1738 47.5271 29.0368 47.3932 28.8999 46.9916L23.2842 27.5791H23.1473L17.5317 46.9916C17.3947 47.3932 17.2577 47.5271 16.8468 47.5271H10.2725C9.86156 47.5271 9.7246 47.3932 9.58763 46.9916L0 13.254C0 12.9863 4.16355e-06 12.7185 0.410903 12.7185H9.03976C9.45066 12.7185 9.72459 12.9863 9.72459 13.254L14.2445 33.4698H14.3814L19.8601 13.254C19.9971 12.8524 20.134 12.7185 20.5449 12.7185H25.8866C26.2975 12.7185 26.4345 12.8524 26.5714 13.254L32.324 33.4698H32.461L36.8439 13.254C36.8439 12.9863 37.1178 12.7185 37.5287 12.7185H46.1576C46.4315 12.7185 46.5685 12.9863 46.5685 13.254L36.9809 46.9916C36.8439 47.3932 36.7069 47.5271 36.296 47.5271H29.5847ZM53.4168 47.5271C53.1429 47.5271 52.8689 47.2593 52.8689 46.9916V13.254C52.8689 12.9863 53.1429 12.7185 53.4168 12.7185H67.6613C76.2901 12.7185 80.81 17.5382 80.81 24.2321C80.81 30.9261 76.2901 35.8796 67.6613 35.8796H62.4566C62.1826 35.8796 62.1826 36.0135 62.1826 36.1474V46.8577C62.1826 47.1254 61.9087 47.3932 61.6348 47.3932H53.4168V47.5271ZM71.6333 24.366C71.6333 21.9562 69.9897 20.4835 67.1134 20.4835H62.4566C62.1826 20.4835 62.1826 20.6174 62.1826 20.7513V27.9807C62.1826 28.2485 62.3196 28.2485 62.4566 28.2485H67.1134C69.9897 28.2485 71.6333 26.6419 71.6333 24.366ZM93 38.9588C92.3152 37.0845 92.0413 34.8086 92.0413 30.2567C92.0413 25.8387 92.4522 23.4288 93 21.5545C94.7806 16.0655 99.1635 13.254 104.779 13.254C110.532 13.254 114.778 16.0655 116.558 21.5545C117.243 23.4288 117.517 25.5709 117.517 29.7212C117.517 30.1228 117.243 30.3906 116.695 30.3906H94.3697C94.0958 30.3906 93.9588 30.6583 93.9588 30.9261C93.9588 34.5408 94.2327 36.549 94.7806 38.2894C96.4242 43.243 100.122 45.385 105.053 45.385C109.71 45.385 113.134 43.3768 115.189 40.6992C115.462 40.2976 115.873 40.2976 116.147 40.5654L116.558 40.967C116.969 41.2348 116.969 41.6364 116.695 41.9042C114.367 45.1173 110.395 47.3932 105.19 47.3932C99.0265 47.3932 94.9175 44.5817 93 38.9588ZM115.189 28.5162C115.462 28.5162 115.599 28.3824 115.599 28.1146C115.599 25.8387 115.325 23.9644 114.778 22.3578C113.271 17.672 109.71 15.2622 104.916 15.2622C100.122 15.2622 96.5611 17.5382 95.0545 22.3578C94.5066 23.9644 94.2327 25.7048 94.2327 28.1146C94.2327 28.3824 94.3697 28.5162 94.6436 28.5162H115.189ZM149.293 46.7238C148.882 46.7238 148.608 46.456 148.608 46.0544V26.5081C148.608 18.7431 145.321 15.3961 138.884 15.3961C133.268 15.3961 128.611 19.1447 128.611 25.5709V46.1883C128.611 46.5899 128.337 46.8577 127.926 46.8577H127.242C126.831 46.8577 126.557 46.5899 126.557 46.1883V14.8606C126.557 14.4589 126.831 14.1912 127.242 14.1912H127.926C128.337 14.1912 128.611 14.4589 128.611 14.8606V19.4125H128.748C130.392 15.6639 134.227 13.3879 139.021 13.3879C146.554 13.3879 150.8 17.5382 150.8 25.9725V46.0544C150.8 46.456 150.526 46.7238 150.115 46.7238H149.293ZM160.798 55.1582C160.524 54.7566 160.524 54.3549 160.935 54.221L161.483 53.8194C161.894 53.5516 162.168 53.6855 162.442 54.0872C164.359 56.497 167.236 57.9697 171.345 57.9697C177.645 57.9697 181.754 54.8904 181.754 46.8577V41.3686H181.617C179.974 44.9834 177.097 47.5271 171.208 47.5271C165.592 47.5271 161.757 44.5817 160.113 39.7621C159.292 37.4861 159.018 34.5408 159.018 30.5244C159.018 26.5081 159.429 23.5627 160.113 21.2868C161.757 16.4671 165.592 13.5218 171.208 13.5218C177.097 13.5218 179.974 16.0655 181.617 19.6802H181.754V14.9945C181.754 14.5928 182.028 14.3251 182.439 14.3251H183.124C183.535 14.3251 183.809 14.5928 183.809 14.9945V46.9916C183.809 55.9615 178.878 59.9778 171.208 59.9778C166.414 59.844 162.442 57.7019 160.798 55.1582ZM180.795 38.9588C181.48 36.9506 181.754 34.5408 181.754 30.3906C181.754 26.3742 181.48 23.8305 180.795 21.8223C179.152 17.0026 175.591 15.2622 171.482 15.2622C166.962 15.2622 163.675 17.4043 162.305 21.6884C161.62 23.6966 161.209 26.5081 161.209 30.2567C161.209 34.0053 161.62 36.8168 162.305 38.8249C163.812 43.1091 166.962 45.2511 171.482 45.2511C175.591 45.5189 179.289 43.7785 180.795 38.9588ZM195.314 4.01637C194.903 4.01637 194.629 3.74861 194.629 3.34698V0.669396C194.629 0.267758 194.903 0 195.314 0H196.957C197.368 0 197.642 0.267758 197.642 0.669396V3.48086C197.642 3.88249 197.368 4.15025 196.957 4.15025H195.314V4.01637ZM195.862 46.7238C195.451 46.7238 195.177 46.456 195.177 46.0544V14.8606C195.177 14.4589 195.451 14.1912 195.862 14.1912H196.546C196.957 14.1912 197.231 14.4589 197.231 14.8606V46.0544C197.231 46.456 196.957 46.7238 196.546 46.7238H195.862ZM231.336 46.7238C230.925 46.7238 230.651 46.456 230.651 46.0544V26.5081C230.651 18.7431 227.364 15.3961 220.926 15.3961C215.311 15.3961 210.654 19.1447 210.654 25.5709V46.1883C210.654 46.5899 210.38 46.8577 209.969 46.8577H209.284C208.873 46.8577 208.599 46.5899 208.599 46.1883V14.8606C208.599 14.4589 208.873 14.1912 209.284 14.1912H209.969C210.38 14.1912 210.654 14.4589 210.654 14.8606V19.4125H210.791C212.434 15.6639 216.27 13.3879 221.063 13.3879C228.596 13.3879 232.842 17.5382 232.842 25.9725V46.0544C232.842 46.456 232.569 46.7238 232.158 46.7238H231.336ZM242.156 38.9588C241.471 37.0845 241.197 34.8086 241.197 30.2567C241.197 25.8387 241.608 23.4288 242.156 21.5545C243.937 16.0655 248.32 13.254 253.935 13.254C259.688 13.254 263.934 16.0655 265.714 21.5545C266.399 23.4288 266.673 25.5709 266.673 29.7212C266.673 30.1228 266.399 30.3906 265.851 30.3906H243.526C243.252 30.3906 243.115 30.6583 243.115 30.9261C243.115 34.5408 243.389 36.549 243.937 38.2894C245.58 43.243 249.278 45.385 254.209 45.385C258.866 45.385 262.29 43.3768 264.345 40.6992C264.619 40.2976 265.029 40.2976 265.303 40.5654L265.714 40.967C266.125 41.2348 266.125 41.6364 265.851 41.9042C263.523 45.1173 259.551 47.3932 254.346 47.3932C248.183 47.3932 243.937 44.5817 242.156 38.9588ZM264.208 28.5162C264.482 28.5162 264.619 28.3824 264.619 28.1146C264.619 25.8387 264.345 23.9644 263.797 22.3578C262.29 17.672 258.729 15.2622 253.935 15.2622C249.141 15.2622 245.58 17.5382 244.074 22.3578C243.526 23.9644 243.252 25.7048 243.252 28.1146C243.252 28.3824 243.389 28.5162 243.663 28.5162H264.208ZM270.782 17.4043C270.782 15.1283 272.563 13.3879 274.891 13.3879C277.219 13.3879 279 15.1283 279 17.4043C279 19.6802 277.219 21.4207 274.891 21.4207C272.563 21.4207 270.782 19.6802 270.782 17.4043ZM278.315 17.4043C278.315 15.3961 276.809 14.0573 274.891 14.0573C272.837 14.0573 271.467 15.53 271.467 17.4043C271.467 19.4125 272.974 20.7513 274.891 20.7513C276.809 20.7513 278.315 19.4125 278.315 17.4043ZM273.521 19.6802C273.384 19.6802 273.384 19.6802 273.384 19.5464V15.3961C273.384 15.2622 273.384 15.2622 273.521 15.2622H275.165C276.124 15.2622 276.672 15.7977 276.672 16.601C276.672 17.1365 276.398 17.672 275.713 17.8059L276.672 19.5464C276.809 19.6802 276.672 19.8141 276.535 19.8141H276.124C275.987 19.8141 275.987 19.6802 275.85 19.6802L274.891 17.9398H273.932V19.5464C273.932 19.6802 273.795 19.6802 273.795 19.6802H273.521ZM275.987 16.4671C275.987 16.0655 275.713 15.7977 275.165 15.7977H274.069V17.1365H275.165C275.713 17.1365 275.987 16.8688 275.987 16.4671Z" fill="#162A33"/>
</svg>
