<svg width="49" height="50" viewBox="0 0 49 50" fill="none" xmlns="http://www.w3.org/2000/svg">
<path d="M5.89191 50C4.63671 50 4.07694 49.3423 4.07694 47.8667V44.5896C4.07694 38.0038 4.07572 31.1943 4.08427 24.4959C4.08427 24.1829 4.03783 24.0863 3.8215 23.9521C1.79019 22.6857 0.531322 20.6621 0.0791058 17.9374C-0.104225 16.8311 0.0289954 15.8705 0.500766 14.9127C2.7154 10.4168 4.88359 5.8748 7.09578 1.23035C7.49422 0.393769 8.05644 0.00432713 8.86554 0.00432713H8.89732C9.69175 0.0144238 10.5583 0.0187509 11.6228 0.0187509C12.2107 0.0187509 12.7986 0.0187509 13.3877 0.0158661C13.9756 0.0158661 14.5647 0.0129814 15.1526 0.0129814H25.8664C29.8178 0.0144238 34.5086 0.0129814 39.3449 0C40.2628 0 40.869 0.419732 41.3163 1.3616C43.0555 5.02236 44.8424 8.73215 46.5706 12.3208C47.1646 13.5526 47.7573 14.7844 48.3501 16.0162C48.3745 16.0681 48.388 16.1258 48.388 16.1849V17.2869C48.388 17.3316 48.3806 17.3763 48.366 17.4167C48.3562 17.4441 48.3452 17.4715 48.333 17.5004C48.3269 17.5148 48.3208 17.5278 48.3159 17.5422C47.97 20.4399 46.6867 22.6049 44.5001 23.9795C44.3058 24.1021 44.2667 24.1872 44.2667 24.4872C44.2753 31.2001 44.274 38.0254 44.274 44.6257V47.8581C44.274 49.338 43.7143 49.9986 42.4603 49.9986C36.3652 49.9986 30.27 49.9986 24.1761 49.9986C18.0822 49.9986 11.9858 49.9986 5.89191 49.9986V50ZM10.573 46.5037V46.0897C10.573 44.7238 10.5754 43.3579 10.5778 41.9919C10.5827 38.8187 10.5876 35.5387 10.5656 32.3121C10.5448 29.4158 12.2046 27.1037 14.4266 26.935C14.8886 26.9003 15.3921 26.883 15.9653 26.883C16.5385 26.883 17.0739 26.8989 17.6129 26.9133C18.0284 26.9249 18.4574 26.9364 18.8778 26.9407C19.0734 26.9436 19.2616 27.0071 19.4119 27.0604C21.4029 27.747 22.5946 29.6495 22.5982 32.1491C22.6031 35.4738 22.6019 38.8533 22.6019 42.1217C22.6019 43.4833 22.6019 46.495 22.6019 46.495H41.3126V24.9459C38.4735 24.6358 37.8501 24.2795 35.5793 21.6299C34.2544 23.7084 32.1327 24.9373 29.8312 24.9387C27.6093 24.9387 25.5731 23.7646 24.1883 21.7006C22.7767 23.792 20.7967 24.9373 18.5735 24.9373C16.2953 24.9373 14.121 23.6838 12.7998 21.6385C11.3209 23.805 9.38131 24.9171 7.0249 24.9474V46.5037H10.5754H10.573ZM19.6821 46.5037V43.5136C19.6845 39.7476 19.6857 35.8546 19.6796 32.0251C19.6784 31.0039 19.1088 30.3332 18.2313 30.3188C17.872 30.313 17.487 30.3101 17.0189 30.3101C16.7109 30.3101 16.4029 30.3101 16.0949 30.313C15.8138 30.313 15.5314 30.3159 15.2503 30.3159C14.0061 30.3159 13.5209 30.8856 13.5209 32.3467C13.5209 35.6527 13.5209 38.9586 13.5209 42.2645V46.5051H19.6845L19.6821 46.5037ZM37.1987 17.8408C37.5531 19.7851 39.2117 21.3804 41.0523 21.4756C41.1159 21.4784 41.1782 21.4799 41.2417 21.4799C43.1618 21.4799 44.7739 20.0029 45.2762 17.8408H37.1987ZM25.831 17.822C26.161 19.8183 27.916 21.4568 29.8325 21.4784H29.8691C31.788 21.4784 33.5577 19.8399 33.9036 17.822H25.831ZM14.4547 17.8249C14.836 19.8586 16.5715 21.4655 18.4831 21.477H18.5051C20.4093 21.477 22.146 19.8716 22.5347 17.8249H14.4547ZM3.08695 17.8321C3.58195 19.9712 5.1757 21.4481 7.07501 21.4756H7.12878C9.0232 21.4756 10.6365 19.9971 11.1645 17.8321H3.08695ZM44.1653 14.3026C44.1653 14.3026 43.3476 12.6049 42.9406 11.7626C41.683 9.15477 40.3838 6.45896 39.1176 3.79922C38.9966 3.54681 38.9037 3.48478 38.6421 3.48478C33.768 3.49055 28.8938 3.49344 24.0209 3.49344C19.1479 3.49344 14.4645 3.49055 9.68564 3.48623V3.14294L9.68441 3.48623C9.43753 3.48623 9.35442 3.53959 9.2432 3.77326C8.00266 6.37963 6.73034 9.02207 5.49958 11.5765C5.06204 12.4852 4.62449 13.3939 4.18816 14.3026H44.1653Z" fill="#1F2278"/>
<path d="M32.9187 41.0394C32.6034 41.0394 32.288 41.0394 31.9739 41.0365C31.6598 41.0365 31.3445 41.0336 31.0304 41.0336C31.0304 41.0336 30.3741 41.0336 30.06 41.0336C29.7446 41.0336 29.4293 41.0336 29.114 41.0336C28.7314 41.0336 28.3501 41.0336 27.9675 41.0293C25.715 41.0105 24.2508 39.2797 24.2386 36.6214C24.23 34.8386 24.23 33.0385 24.2386 31.2716C24.2508 28.5989 25.7175 26.868 27.9737 26.8622C29.0199 26.8594 30.0661 26.8579 31.1123 26.8579C32.09 26.8579 33.0678 26.8594 34.0456 26.8622C36.2443 26.8694 37.733 28.6104 37.7513 31.1937C37.7647 33.0976 37.7647 34.954 37.7513 36.7108C37.7317 39.3013 36.2944 40.9961 34.0908 41.0278C33.7009 41.0336 33.3098 41.035 32.9199 41.035L32.9187 41.0394ZM32.8307 37.5805C33.2304 37.5805 33.6312 37.5805 34.0309 37.5777C34.6396 37.5748 34.8253 37.3584 34.8278 36.656C34.8327 34.9309 34.8327 33.1164 34.8278 31.2615C34.8253 30.5461 34.6359 30.3153 34.0468 30.3138C33.0226 30.311 31.9996 30.3095 30.9754 30.3095C29.9512 30.3095 28.949 30.311 27.937 30.3153C27.3711 30.3167 27.1694 30.5533 27.167 31.2197C27.1609 32.9548 27.1609 34.7881 27.167 36.6675C27.1694 37.3714 27.3491 37.5748 27.97 37.5791C28.3696 37.582 28.7693 37.582 29.169 37.582H31.0011H32.8319L32.8307 37.5805Z" fill="#1F2278"/>
</svg>
