<svg width="60" height="62" viewBox="0 0 60 62" fill="none" xmlns="http://www.w3.org/2000/svg">
<g clip-path="url(#clip0_612_1137)">
<path d="M54.6169 7.32617H32.2379V2.8457C32.2379 2.25156 32.0021 1.68174 31.5824 1.26162C31.1627 0.841493 30.5935 0.605469 30 0.605469C29.4065 0.605469 28.8372 0.841493 28.4176 1.26162C27.9979 1.68174 27.7621 2.25156 27.7621 2.8457V7.32617H5.38306C4.19601 7.32617 3.05757 7.79822 2.21819 8.63847C1.37881 9.47872 0.907257 10.6183 0.907257 11.8066V45.4102C0.907257 46.5985 1.37881 47.7381 2.21819 48.5783C3.05757 49.4186 4.19601 49.8906 5.38306 49.8906H16.3935L10.3484 57.4514C9.97746 57.9156 9.80589 58.5083 9.87147 59.0991C9.93705 59.6899 10.2344 60.2304 10.6981 60.6017C11.1618 60.9731 11.7538 61.1448 12.344 61.0792C12.9342 61.0135 13.4742 60.7159 13.8451 60.2517L22.1226 49.8906H37.8774L46.1549 60.2517C46.3385 60.4816 46.5656 60.6729 46.8232 60.8149C47.0808 60.9569 47.3637 61.0467 47.656 61.0792C47.9482 61.1117 48.244 61.0863 48.5264 61.0043C48.8088 60.9224 49.0723 60.7856 49.3019 60.6017C49.5315 60.4179 49.7227 60.1905 49.8645 59.9327C50.0063 59.6749 50.0961 59.3916 50.1285 59.0991C50.161 58.8065 50.1356 58.5105 50.0538 58.2278C49.9719 57.9451 49.8353 57.6813 49.6516 57.4514L43.6064 49.8906H54.6169C55.804 49.8906 56.9424 49.4186 57.7818 48.5783C58.6212 47.7381 59.0927 46.5985 59.0927 45.4102V11.8066C59.0927 10.6183 58.6212 9.47872 57.7818 8.63847C56.9424 7.79822 55.804 7.32617 54.6169 7.32617ZM54.6169 45.4102H5.38306V11.8066H54.6169V45.4102Z" fill="#1F2278"/>
<path d="M35.754 17.3158C35.754 17.584 35.8356 17.8458 35.9879 18.0661C36.1403 18.2864 36.3561 18.4548 36.6065 18.5487L31.8195 23.35V18.6316C31.8195 18.3714 31.7425 18.117 31.5984 17.9007C31.4543 17.6844 31.2495 17.5158 31.0099 17.4162C30.7703 17.3166 30.5066 17.2906 30.2523 17.3413C29.9979 17.3921 29.7642 17.5174 29.5808 17.7013L20.4004 26.9118C20.2751 27.0332 20.1752 27.1784 20.1065 27.3389C20.0377 27.4995 20.0016 27.6721 20 27.8468C19.9985 28.0216 20.0317 28.1948 20.0977 28.3565C20.1636 28.5182 20.261 28.6651 20.3841 28.7887C20.5073 28.9122 20.6537 29.0099 20.8149 29.0761C20.9761 29.1422 21.1487 29.1755 21.3229 29.174C21.497 29.1725 21.6691 29.1362 21.8291 29.0672C21.9891 28.9983 22.1339 28.898 22.2548 28.7724L29.1966 21.8079V26.5263C29.1966 26.7865 29.2736 27.0409 29.4177 27.2572C29.5618 27.4735 29.7666 27.6421 30.0062 27.7417C30.2458 27.8412 30.5095 27.8673 30.7638 27.8166C31.0182 27.7658 31.2519 27.6405 31.4353 27.4566L38.4596 20.4092C38.5671 20.6984 38.7725 20.9405 39.0399 21.0932C39.3073 21.2458 39.6196 21.2993 39.9224 21.2443C40.2251 21.1892 40.4989 21.0292 40.6959 20.7921C40.8929 20.555 41.0005 20.256 41 19.9474V17.3158C41 16.9668 40.8618 16.6321 40.6159 16.3854C40.3699 16.1386 40.0363 16 39.6885 16H37.0655C36.7177 16 36.3841 16.1386 36.1382 16.3854C35.8922 16.6321 35.754 16.9668 35.754 17.3158ZM22.6391 33.1053C22.9869 33.1053 23.3205 33.2439 23.5665 33.4906C23.8124 33.7374 23.9506 34.0721 23.9506 34.4211V39.6842C23.9506 40.0332 23.8124 40.3679 23.5665 40.6146C23.3205 40.8614 22.9869 41 22.6391 41C22.2913 41 21.9577 40.8614 21.7117 40.6146C21.4658 40.3679 21.3276 40.0332 21.3276 39.6842V34.4211C21.3276 34.0721 21.4658 33.7374 21.7117 33.4906C21.9577 33.2439 22.2913 33.1053 22.6391 33.1053Z" fill="#1F2278"/>
<path d="M28.3 28.5C27.9552 28.5 27.6246 28.6317 27.3808 28.8661C27.137 29.1005 27 29.4185 27 29.75V39.75C27 40.0815 27.137 40.3995 27.3808 40.6339C27.6246 40.8683 27.9552 41 28.3 41C28.6448 41 28.9754 40.8683 29.2192 40.6339C29.463 40.3995 29.6 40.0815 29.6 39.75V29.75C29.6 29.4185 29.463 29.1005 29.2192 28.8661C28.9754 28.6317 28.6448 28.5 28.3 28.5ZM33.5 32.25C33.8448 32.25 34.1754 32.3817 34.4192 32.6161C34.663 32.8505 34.8 33.1685 34.8 33.5V39.75C34.8 40.0815 34.663 40.3995 34.4192 40.6339C34.1754 40.8683 33.8448 41 33.5 41C33.1552 41 32.8246 40.8683 32.5808 40.6339C32.337 40.3995 32.2 40.0815 32.2 39.75V33.5C32.2 33.1685 32.337 32.8505 32.5808 32.6161C32.8246 32.3817 33.1552 32.25 33.5 32.25ZM38.7 26C38.3552 26 38.0246 26.1317 37.7808 26.3661C37.537 26.6005 37.4 26.9185 37.4 27.25V39.75C37.4 40.0815 37.537 40.3995 37.7808 40.6339C38.0246 40.8683 38.3552 41 38.7 41C39.0448 41 39.3754 40.8683 39.6192 40.6339C39.863 40.3995 40 40.0815 40 39.75V27.25C40 26.9185 39.863 26.6005 39.6192 26.3661C39.3754 26.1317 39.0448 26 38.7 26Z" fill="#1F2278"/>
</g>
<defs>
<clipPath id="clip0_612_1137">
<rect width="60" height="62" fill="white"/>
</clipPath>
</defs>
</svg>
