<svg width="66" height="47" viewBox="0 0 66 47" fill="none" xmlns="http://www.w3.org/2000/svg">
<path d="M64.307 0.555834H53.02C52.085 0.555834 51.327 1.31384 51.327 2.24888V44.2928C51.327 45.2279 52.085 45.9859 53.02 45.9859H64.307C65.242 45.9859 66 45.2279 66 44.2928V2.24888C66 1.31384 65.242 0.555834 64.307 0.555834Z" fill="white"/>
<path d="M48.1777 2.18225L37.0976 0.0315245C36.1797 -0.146648 35.2911 0.453009 35.1129 1.37092L27.1014 42.6445C26.9232 43.5624 27.523 44.451 28.4409 44.6292L39.521 46.7799C40.439 46.9581 41.3275 46.3584 41.5057 45.4405L49.5171 4.16688C49.6953 3.24897 49.0957 2.36043 48.1777 2.18225Z" fill="white"/>
<path d="M31.6919 5.63094L21.648 0.481321C20.816 0.0547166 19.7956 0.383408 19.369 1.21546L0.186862 38.6285C-0.239743 39.4606 0.088922 40.4809 0.920975 40.9075L10.9648 46.0571C11.7969 46.4837 12.8172 46.1551 13.2438 45.323L32.426 7.90993C32.8526 7.07788 32.5239 6.05754 31.6919 5.63094Z" fill="white"/>
</svg>
