<svg width="16" height="16" viewBox="0 0 16 16" fill="none" xmlns="http://www.w3.org/2000/svg">
<path d="M8.93739 15.2937L15.7175 8.5136C15.8202 8.41087 15.8931 8.29958 15.9363 8.17973C15.9794 8.05988 16.0007 7.93147 16 7.7945C16 7.65753 15.9784 7.52912 15.9353 7.40927C15.8921 7.28942 15.8195 7.17813 15.7175 7.0754L8.93739 0.295307C8.74905 0.106971 8.51346 0.00869395 8.23062 0.000475658C7.94777 -0.00774263 7.70396 0.0905341 7.49919 0.295307C7.29373 0.483642 7.18655 0.719234 7.17765 1.00208C7.16874 1.28493 7.26736 1.52874 7.47351 1.73351L12.5072 6.76721H1.02728C0.736218 6.76721 0.492067 6.86583 0.294828 7.06307C0.0975886 7.26031 -0.000688727 7.50412 -3.91879e-06 7.7945C-3.91879e-06 8.08556 0.0982734 8.32971 0.294828 8.52695C0.491383 8.72419 0.735533 8.82247 1.02728 8.82179H12.5072L7.47351 13.8555C7.28517 14.0438 7.18655 14.2835 7.17765 14.5746C7.16874 14.8657 7.26736 15.1054 7.47351 15.2937C7.66184 15.4991 7.90154 15.6019 8.19261 15.6019C8.48367 15.6019 8.73193 15.4991 8.93739 15.2937Z" fill="white"/>
</svg>
