<svg width="60" height="60" viewBox="0 0 60 60" fill="none" xmlns="http://www.w3.org/2000/svg">
<path d="M37.4997 30.0132C37.5007 32.1766 37.1104 34.3221 36.3477 36.3466C34.3225 37.1099 32.1762 37.4999 30.0121 37.501H29.9868C27.7584 37.4977 25.6233 37.0899 23.653 36.3477C22.8898 34.3232 22.4992 32.1766 22.4999 30.0132V29.9866C22.4989 27.8232 22.8887 25.6788 23.6507 23.6544C25.6758 22.8899 27.8226 22.4988 29.987 22.4999H30.0124C32.1766 22.4988 34.323 22.8899 36.3479 23.6533C37.1108 25.6777 37.501 27.8232 37.4999 29.9866L37.4997 30.0132ZM59.5832 24.9999H42.0715L54.4534 12.6177C53.4815 11.2522 52.3974 9.96997 51.2124 8.78553C50.0274 7.6022 48.746 6.51776 47.3815 5.54666L34.9989 17.9288V0.417768C33.352 0.141102 31.6849 0.00111111 30.0149 0H29.984C28.2853 0.00111111 26.6214 0.145546 25 0.417768V17.9288L12.6173 5.54666C11.2526 6.51776 9.97186 7.60109 8.78831 8.78665L8.78175 8.79109C7.59875 9.97442 6.5162 11.2544 5.54532 12.6177L17.9289 24.9999H0.417666C0.417666 24.9999 0 28.2888 0 29.9899V30.0099C0 31.711 0.144111 33.3777 0.417666 34.9999H17.9292L5.54554 47.3821C7.49354 50.1165 9.88353 52.5065 12.6173 54.4543L25 42.071V59.5832C26.645 59.8587 28.3101 59.9976 29.9781 59.9998H30.0206C31.6886 59.9987 33.3536 59.8587 34.9987 59.5832V42.071L47.3825 54.4543C48.7466 53.4821 50.0277 52.3987 51.2124 51.2154L51.2153 51.2121C52.3986 50.0276 53.4817 48.7465 54.4534 47.3821L42.0698 34.9999H59.5832C59.8557 33.3799 59.9979 31.7188 59.9998 30.0221V29.9777C59.9979 28.281 59.8557 26.6199 59.5832 24.9999Z" fill="#FF4A00"/>
</svg>
