<svg width="45" height="45" viewBox="0 0 45 45" fill="none" xmlns="http://www.w3.org/2000/svg">
<path fill-rule="evenodd" clip-rule="evenodd" d="M19.6922 28.1799V44.9989H16.855V19.716C16.855 18.1567 18.1348 16.932 19.6922 16.932H28.0908V25.3404C28.0908 26.9008 26.8675 28.1809 25.3101 28.1809L19.6922 28.1799ZM44.9999 9.21263e-05V42.1594C44.9987 42.9103 44.6995 43.6301 44.1683 44.1621C43.6372 44.6941 42.9162 44.9951 42.1639 44.9999H39.382V2.78504C39.3784 2.41907 39.4469 2.05573 39.5851 1.7166C39.7233 1.37747 39.9276 1.06913 40.1871 0.80981C40.4455 0.550488 40.7543 0.345331 41.0944 0.206204C41.4333 0.0671959 41.7974 -0.00290373 42.1651 9.21263e-05H44.9999ZM33.7641 9.21263e-05H36.5448V42.1594C36.5448 43.7188 35.2662 44.9999 33.7641 44.9999H30.9269V14.0351C30.9269 12.4746 32.2067 11.25 33.7641 11.25V9.21263e-05ZM11.237 44.9989H8.45512V2.78504C8.45151 2.41907 8.52002 2.05597 8.65821 1.71684C8.79641 1.37771 9.0007 1.06949 9.26027 0.810171C9.51864 0.550849 9.82747 0.345693 10.1663 0.206565C10.5064 0.0674372 10.8693 -0.0027839 11.237 9.21263e-05H14.0742V30.9095C14.0718 31.6602 13.7726 32.3799 13.2415 32.9118C12.7091 33.4436 11.9881 33.7445 11.2358 33.7489V44.9989H11.237ZM0 44.9989V2.78504C0 1.22576 1.27859 9.21263e-05 2.83599 9.21263e-05H5.62034V42.1594C5.62034 43.7188 4.3958 44.9999 2.8372 44.9999L0 44.9989Z" fill="#F85E1F"/>
</svg>
