<svg width="64" height="64" viewBox="0 0 64 64" fill="none" xmlns="http://www.w3.org/2000/svg">
<g clip-path="url(#clip0_612_1206)">
<path d="M4.79098 0.075195H33.5719C34.3989 0.075195 35.1099 0.370195 35.6939 0.954192L48.3088 13.5691C48.8928 14.1541 49.1878 14.8641 49.1878 15.6911V22.4931C49.1878 22.6861 49.0848 22.8521 48.9118 22.9391C48.7388 23.0261 48.5438 23.0081 48.3888 22.8931C47.4658 22.2031 46.4878 21.6171 45.4728 21.1331C45.2938 21.0491 45.1878 20.8791 45.1878 20.6821V16.3061H37.1729C34.8509 16.3061 32.9569 14.4121 32.9569 12.0901V4.07618H4.79098C4.35798 4.07618 3.99998 4.43318 3.99998 4.86718V58.836C3.99998 59.28 4.34698 59.627 4.79098 59.627H44.3958C44.8298 59.627 45.1878 59.269 45.1878 58.836V54.087C45.1878 53.84 45.3628 53.633 45.6078 53.593C45.8518 53.554 46.0828 53.694 46.1618 53.929C46.4118 54.684 46.7548 55.651 47.5078 56.456L49.0478 58.054C49.1408 58.151 49.1878 58.266 49.1878 58.401V58.836C49.1878 61.476 47.0368 63.627 44.3958 63.627H4.79098C2.16099 63.627 0 61.466 0 58.836V4.86718C0 2.22619 2.15099 0.075195 4.79098 0.075195ZM17.2659 27.1981H22.4759C22.6569 27.1981 22.8129 27.2871 22.9059 27.4441C22.9979 27.6001 23.0009 27.7791 22.9129 27.9391C22.5329 28.6281 22.1979 29.3461 21.9129 30.0871C21.8379 30.2841 21.6579 30.4071 21.4469 30.4071H17.2659C16.8369 30.4071 16.4859 30.0571 16.4859 29.6291V27.9781C16.4859 27.5481 16.8369 27.1981 17.2659 27.1981ZM9.62596 34.0661H12.519C12.9479 34.0661 13.2989 34.4171 13.2989 34.8461V36.4971C13.2989 36.9251 12.9479 37.2761 12.519 37.2761H9.62596C9.19696 37.2761 8.84697 36.9251 8.84697 36.4971V34.8461C8.84697 34.4171 9.19696 34.0661 9.62596 34.0661ZM17.2659 34.0661H20.3439C20.4899 34.0661 20.6159 34.1221 20.7139 34.2301C20.8119 34.3381 20.8559 34.4691 20.8409 34.6151C20.7849 35.1841 20.7559 35.7611 20.7559 36.3451C20.7559 36.4851 20.7579 36.6251 20.7609 36.7641C20.7649 36.9041 20.7169 37.0251 20.6189 37.1251C20.5209 37.2251 20.4009 37.2761 20.2609 37.2761H17.2659C16.8369 37.2761 16.4859 36.9251 16.4859 36.4971V34.8461C16.4859 34.4171 16.8369 34.0661 17.2659 34.0661ZM9.62596 20.3301H12.519C12.9479 20.3301 13.2989 20.6811 13.2989 21.1091V22.7601C13.2989 23.1891 12.9479 23.5401 12.519 23.5401H9.62596C9.19696 23.5401 8.84697 23.1891 8.84697 22.7601V21.1091C8.84697 20.6811 9.19696 20.3301 9.62596 20.3301ZM9.62596 27.1981H12.519C12.9479 27.1981 13.2989 27.5481 13.2989 27.9781V29.6291C13.2989 30.0571 12.9479 30.4071 12.519 30.4071H9.62596C9.19696 30.4071 8.84697 30.0571 8.84697 29.6291V27.9781C8.84697 27.5481 9.19696 27.1981 9.62596 27.1981ZM17.2659 20.3301H29.1889C29.4179 20.3301 29.6119 20.4781 29.6709 20.6991C29.7309 20.9201 29.6379 21.1471 29.4399 21.2621C28.3849 21.8751 27.3989 22.5971 26.4999 23.4111C26.4039 23.4971 26.2929 23.5401 26.1649 23.5401H17.2659C16.8369 23.5401 16.4859 23.1891 16.4859 22.7601V21.1091C16.4859 20.6811 16.8369 20.3301 17.2659 20.3301ZM46.7698 48.524C40.9448 52.924 32.5869 52.354 27.4179 46.958C21.8479 41.143 22.0539 31.8751 27.8699 26.3041C33.6859 20.7331 42.9538 20.9381 48.5228 26.7561C53.6928 32.1521 53.8978 40.527 49.2488 46.15L51.2788 48.266C52.5838 47.912 54.0298 48.256 55.0408 49.287L62.9468 57.528C64.3918 59.043 64.3468 61.431 62.8308 62.872C61.3158 64.3159 58.9288 64.2719 57.4848 62.756L49.5628 54.532C48.5718 53.474 48.2488 51.958 48.7508 50.594L46.7698 48.524ZM46.2368 28.9431C41.8748 24.3991 34.6179 24.2311 30.0569 28.5921C25.5129 32.9511 25.3459 40.211 29.7049 44.77C34.0659 49.331 41.3258 49.482 45.8848 45.121C50.4438 40.762 50.5958 33.5021 46.2368 28.9431Z" fill="#1F2278"/>
</g>
<defs>
<clipPath id="clip0_612_1206">
<rect width="64.0002" height="64" fill="white"/>
</clipPath>
</defs>
</svg>
