<svg width="70" height="69" viewBox="0 0 70 69" fill="none" xmlns="http://www.w3.org/2000/svg">
<path d="M23.7451 68.4223H46.2549V51.7863L40.7647 46.4198H29.098L23.7451 51.7863V68.4223ZM52.8432 23.2099L47.4902 28.4422V39.9801L52.8432 45.2124H70V23.2099H52.8432ZM46.2549 0H23.7451V16.7702L29.098 22.0025H40.7647L46.2549 16.7702V0ZM70 68.4223V51.7863L64.6471 46.4198H47.4902V68.4223H70ZM5.35294 0L0 5.23229V22.0025H22.5098V0H5.35294ZM47.4902 0V16.7702L52.8432 22.0025H70V0H47.4902ZM35 37.431C33.2157 37.431 31.8431 35.9553 31.8431 34.3453C31.8431 32.6012 33.353 31.2596 35 31.2596C36.7843 31.2596 38.1569 32.7354 38.1569 34.3453C38.1569 35.9553 36.7843 37.431 35 37.431ZM22.5098 23.2099H0V45.2124H17.0196L22.5098 39.9801V23.2099ZM22.5098 51.7863L17.0196 46.4198H0V68.4223H17.0196L22.5098 63.19V51.7863Z" fill="#40BAC8"/>
</svg>
