<svg width="50" height="75" viewBox="0 0 50 75" fill="none" xmlns="http://www.w3.org/2000/svg">
<path d="M23.4708 17.4959H30.512C31.1287 17.4871 31.7172 17.236 32.1502 16.7968C32.5833 16.3575 32.826 15.7655 32.826 15.1487C32.826 14.5319 32.5832 13.9399 32.1502 13.5007C31.7171 13.0615 31.1286 12.8104 30.5119 12.8017H26.9914V11.6282C26.9824 11.0116 26.7312 10.4233 26.292 9.99043C25.8528 9.55757 25.2609 9.31493 24.6442 9.31494C24.0276 9.31496 23.4357 9.55763 22.9965 9.99051C22.5573 10.4234 22.3062 11.0117 22.2972 11.6283V12.9077C13.8982 14.5024 14.8639 26.6839 23.4709 26.8841H25.8178C26.4403 26.8841 27.0373 27.1314 27.4775 27.5716C27.9176 28.0117 28.1649 28.6087 28.1649 29.2312C28.1649 29.8537 27.9176 30.4507 27.4775 30.8908C27.0373 31.331 26.4403 31.5783 25.8178 31.5783H18.7766C18.16 31.5872 17.5717 31.8384 17.1389 32.2776C16.706 32.7168 16.4634 33.3087 16.4634 33.9254C16.4634 34.542 16.7061 35.1339 17.1389 35.5731C17.5718 36.0123 18.1601 36.2635 18.7767 36.2724H22.2972V37.4459C22.3062 38.0625 22.5574 38.6508 22.9966 39.0837C23.4358 39.5165 24.0277 39.7592 24.6443 39.7592C25.261 39.7592 25.8529 39.5165 26.2921 39.0836C26.7312 38.6507 26.9824 38.0624 26.9914 37.4458V36.1664C35.3887 34.5738 34.426 22.3898 25.8177 22.19H23.4708C22.8543 22.1808 22.2662 21.9295 21.8335 21.4904C21.4008 21.0512 21.1583 20.4594 21.1583 19.8429C21.1583 19.2264 21.4008 18.6346 21.8335 18.1955C22.2662 17.7563 22.8543 17.505 23.4708 17.4959Z" fill="#1F2278"/>
<path d="M22.2971 49.0634V55.3188C14.2146 48.9691 6.61776 55.8465 3.9595 59.5512C3.67388 59.9496 3.52028 60.4275 3.52028 60.9177C3.52028 61.4079 3.67388 61.8858 3.9595 62.2842C4.16006 62.5639 8.93786 69.1323 15.2559 69.1323C17.8216 69.0317 20.2882 68.1153 22.2971 66.5164V72.6529C22.2971 73.2754 22.5444 73.8724 22.9846 74.3126C23.4247 74.7527 24.0217 75 24.6442 75C25.2667 75 25.8637 74.7527 26.3038 74.3126C26.744 73.8724 26.9913 73.2754 26.9913 72.6529V66.5164C35.0738 72.8661 42.6707 65.9887 45.3289 62.284C45.6145 61.8856 45.7681 61.4077 45.7681 60.9175C45.7681 60.4273 45.6145 59.9494 45.3289 59.551C45.1284 59.2713 40.3506 52.7029 34.0325 52.7029C31.4669 52.8035 29.0002 53.7199 26.9913 55.3188V49.0597C31.7441 48.6146 36.2643 46.794 39.9988 43.8205C43.7332 40.8471 46.5202 36.8497 48.0187 32.3173C48.1159 32.0246 48.1546 31.7157 48.1324 31.4081C48.1102 31.1005 48.0276 30.8002 47.8893 30.5246C47.751 30.2489 47.5597 30.0032 47.3264 29.8015C47.0931 29.5998 46.8223 29.4461 46.5296 29.3491C46.2368 29.2521 45.9278 29.2138 45.6202 29.2363C45.3126 29.2588 45.0125 29.3417 44.737 29.4803C44.4615 29.6189 44.216 29.8104 44.0145 30.0439C43.813 30.2774 43.6596 30.5484 43.5629 30.8412C42.0671 35.3361 39.0203 39.1517 34.9679 41.6051C30.9155 44.0585 26.1222 44.9894 21.4461 44.2311C16.77 43.4728 12.5164 41.0748 9.44704 37.4665C6.37764 33.8582 4.69279 29.2752 4.69414 24.538C5.08698 1.98024 36.1174 -3.04957 43.5629 18.2352C43.7654 18.8175 44.1889 19.2968 44.7419 19.5695C45.2949 19.8421 45.9329 19.8862 46.5182 19.6923C47.1035 19.4984 47.5889 19.082 47.8697 18.533C48.1504 17.9841 48.2039 17.3468 48.0186 16.7587C38.8218 -9.54229 0.482017 -3.32712 0 24.5384C0.00826113 30.665 2.29565 36.5694 6.41704 41.1026C10.5384 45.6358 16.199 48.4734 22.2971 49.0634ZM15.2559 64.4382C12.8458 64.4382 10.4197 62.4779 8.93329 60.9176C13.2359 56.3051 17.2842 56.313 21.5786 60.9176C20.0899 62.4791 17.6649 64.4382 15.2559 64.4382ZM34.0325 57.397C36.4426 57.397 38.8687 59.3573 40.3551 60.9176C36.0525 65.5301 32.0043 65.5222 27.7098 60.9176C29.1985 59.3561 31.6235 57.397 34.0325 57.397Z" fill="#1F2278"/>
<path d="M44.5942 24.5386C44.6034 25.1551 44.8547 25.7432 45.2939 26.1759C45.7331 26.6086 46.3248 26.8511 46.9414 26.8511C47.5579 26.8511 48.1496 26.6085 48.5888 26.1758C49.028 25.7431 49.2792 25.155 49.2884 24.5385C49.2792 23.9221 49.0279 23.334 48.5887 22.9013C48.1496 22.4686 47.5578 22.2261 46.9413 22.2261C46.3247 22.2261 45.733 22.4686 45.2938 22.9014C44.8547 23.3341 44.6034 23.9222 44.5942 24.5386Z" fill="#1F2278"/>
</svg>
