<svg width="59" height="59" viewBox="0 0 59 59" fill="none" xmlns="http://www.w3.org/2000/svg">
<mask id="mask0_612_1075" style="mask-type:luminance" maskUnits="userSpaceOnUse" x="-1" y="-1" width="61" height="61">
<path d="M59.4637 -0.465631H-0.473266V59.4713H59.4637V-0.465631Z" fill="white"/>
</mask>
<g mask="url(#mask0_612_1075)">
<path d="M58.9904 7.08993C58.9904 3.17352 55.8201 0 51.9084 0H7.08201C3.17033 0 0 3.17352 0 7.08993V51.9101C0 55.8265 3.17033 59.0001 7.08201 59.0001H51.9084C55.8201 59.0001 58.9904 55.8265 58.9904 51.9101V7.08993ZM26.6876 46.142C26.6876 47.9243 25.1419 49.1672 23.3595 49.1672H10.5678C8.78542 49.1672 7.49212 47.9243 7.49212 46.142V10.4085C7.49212 8.62619 8.78542 7.02367 10.5678 7.02367H23.3595C25.1419 7.02367 26.6876 8.62619 26.6876 10.4085V46.142ZM52.4448 15.0237V29.9543C52.4448 31.7366 51.0726 33.2461 49.2745 33.2461H36.4827C34.7004 33.2461 33.2492 31.7366 33.2492 29.9543V10.2382C33.2492 8.45584 34.7004 7.02367 36.4827 7.02367H49.2745C51.0726 7.02367 52.4448 8.45584 52.4448 10.2382V15.0237Z" fill="#23719F"/>
</g>
</svg>
