<svg width="67" height="60" viewBox="0 0 67 60" fill="none" xmlns="http://www.w3.org/2000/svg">
<path d="M5.06126 51.309L8.01839 56.4131C8.63212 57.4876 9.5168 58.3319 10.553 58.946L21.1059 40.6787H0C0 41.8683 0.302899 43.058 0.91663 44.1326L5.06126 51.309Z" fill="#0066DA"/>
<path d="M33.5001 19.1887L22.9472 0.921381C21.911 1.53543 21.0262 2.37975 20.4125 3.45425L0.91663 37.2257C0.31884 38.2771 0 39.4677 0 40.6795H21.1059L33.5001 19.1887Z" fill="#00AC47"/>
<path d="M56.447 58.946C57.4832 58.3319 58.3679 57.4876 58.9816 56.4131L60.2091 54.3024L66.0834 44.1326C66.6971 43.058 67 41.8683 67 40.6787H45.8941L50.3894 49.5053L56.447 58.946Z" fill="#EA4335"/>
<path d="M33.4999 19.1883L44.0529 0.921073C43.0167 0.307024 41.8292 0 40.6017 0H26.3982C25.1707 0 23.9831 0.345442 22.947 0.921073L33.4999 19.1883Z" fill="#00832D"/>
<path d="M45.8947 40.6787H21.1063L10.5533 58.946C11.5895 59.56 12.7772 59.867 14.0046 59.867H52.9964C54.2238 59.867 55.4115 59.5216 56.4477 58.946L45.8947 40.6787Z" fill="#2684FC"/>
<path d="M56.3359 20.34L46.5879 3.45425C45.9742 2.37975 45.0894 1.53543 44.0533 0.921381L33.5003 19.1887L45.8945 40.6795H66.9685C66.9685 39.4899 66.6576 38.3002 66.0439 37.2257L56.3359 20.34Z" fill="#FFBA00"/>
</svg>
