<svg width="71" height="59" viewBox="0 0 71 59" fill="none" xmlns="http://www.w3.org/2000/svg">
<path d="M65.1599 0.303322C68.2059 0.303373 70.6966 2.79407 70.6967 5.84006V42.4784C70.6967 45.5245 68.206 48.0161 65.1599 48.0162H46.2711V51.2062C46.3511 51.3396 46.5022 51.5302 46.6982 51.7557C46.9026 51.9907 47.1462 52.2585 47.3246 52.4797C47.837 53.0348 48.4369 53.6555 48.8082 54.3401C49.1899 55.044 49.3455 55.8424 48.9492 56.7341C48.5506 57.6309 47.7797 58.0664 47.0316 58.2768C46.2887 58.4858 45.5299 58.484 45.0963 58.484H25.0316C23.5361 58.4839 22.7152 57.8196 22.3979 57.0793V57.0783C22.0092 56.2882 22.0903 55.5435 22.3871 54.855C22.6783 54.1793 23.1862 53.5368 23.6595 52.9344L23.6615 52.9324C23.8313 52.7202 24.0874 52.3775 24.3116 52.0466C24.4237 51.8811 24.5257 51.7215 24.6035 51.585C24.6735 51.4623 24.7117 51.3753 24.7288 51.3256V48.0162H5.83997C2.79395 48.0161 0.30323 45.5245 0.30323 42.4784V5.84006C0.303327 2.7941 2.794 0.30342 5.83997 0.303322H65.1599ZM28.8244 51.3769C28.8244 52.4913 28.2918 53.5149 27.6535 54.3884H43.5594C43.2701 54.0419 42.9906 53.6745 42.7624 53.2866C42.4192 52.7031 42.1755 52.0602 42.1755 51.3769V48.0162H28.8244V51.3769ZM4.39882 42.4784C4.39882 43.2706 5.04783 43.9205 5.83997 43.9206H65.1599C65.9521 43.9205 66.6011 43.2706 66.6011 42.4784V37.5473H4.39882V42.4784ZM5.83997 4.39891C5.04788 4.39901 4.39892 5.04798 4.39882 5.84006V33.4527H66.6011V5.84006C66.601 5.04795 65.9521 4.39896 65.1599 4.39891H5.83997Z" fill="#1F2278" stroke="#308DD3" stroke-width="0.6"/>
</svg>
